<svg width="32" height="32" viewBox="0 0 32 32" fill="none" xmlns="http://www.w3.org/2000/svg">
<path d="M7.72625 23.3925C8.13475 23.0659 8.61021 22.3958 9.032 21.7129C9.78396 20.4953 11.0499 19.6669 12.4578 19.6669H19.5422C20.9501 19.6669 22.216 20.4953 22.968 21.7129C23.3898 22.3958 23.8653 23.0659 24.2738 23.3925C25.2857 24.2015 26.6008 24.2035 27.6585 23.3925C28.4268 22.8033 29 21.7232 29 20.2983C29 18.8735 28.6384 12.9609 27.6585 9.98045C26.6786 7 23.4285 7 16 7C8.57147 7 5.32145 7 4.34153 9.98045C3.36162 12.9609 3 18.8735 3 20.2983C3 21.7232 3.5732 22.8033 4.34153 23.3925C5.39916 24.2035 6.71431 24.2015 7.72625 23.3925Z" stroke="white" stroke-width="4"/>
</svg>
