<svg width="32" height="32" viewBox="0 0 32 32" fill="none" xmlns="http://www.w3.org/2000/svg">
<path d="M27 7C29.2091 7 31 8.79086 31 11V21C31 23.2091 29.2091 25 27 25H5C2.79086 25 1 23.2091 1 21V11C1 8.79086 2.79086 7 5 7H27ZM5 19V21H7V19H5ZM9 19V21H23V19H9ZM25 19V21H27V19H25ZM5 15V17H9V15H5ZM11 15V17H13V15H11ZM15 15V17H17V15H15ZM19 15V17H21V15H19ZM23 15V17H27V15H23ZM5 11V13H7V11H5ZM9 11V13H11V11H9ZM13 11V13H15V11H13ZM17 11V13H19V11H17ZM21 11V13H23V11H21ZM25 11V13H27V11H25Z" fill="white"/>
</svg>
