<?xml version="1.0" encoding="UTF-8" standalone="no"?>
<!DOCTYPE svg PUBLIC "-//W3C//DTD SVG 1.1//EN" "http://www.w3.org/Graphics/SVG/1.1/DTD/svg11.dtd">
<svg width="100%" height="100%" viewBox="0 0 649 622" version="1.1" xmlns="http://www.w3.org/2000/svg" xmlns:xlink="http://www.w3.org/1999/xlink" xml:space="preserve" xmlns:serif="http://www.serif.com/" style="fill-rule:evenodd;clip-rule:evenodd;stroke-linejoin:round;stroke-miterlimit:2;">
    <g transform="matrix(1,0,0,1,-367,-304)">
        <g transform="matrix(0.946016,0,0,0.946016,29.4118,58.1121)">
            <g id="Banjo" transform="matrix(19.8117,0,0,19.8117,336.522,82.7412)">
                <g>
                    <g>
                        <path d="M15.411,23.721L16.802,21.264L15.038,16.771C14.44,13.215 16.372,8.93 20.504,9.189C28.893,10.832 37.74,18.394 35.195,32.829C34.692,35.685 31.138,37.414 29.053,36.96" style="fill:rgb(111,36,6);"/>
                        <path d="M15.038,35.777C15.056,39.159 17.023,42.13 19.725,42.13C26.084,42.13 30.194,36.258 31.12,34.02C32.045,31.782 33.531,27.026 31.12,24.615C29.348,22.843 25.753,21.06 19.991,23.173" style="fill:rgb(255,206,140);"/>
                        <path d="M28.506,13.481C30.336,11.364 31.158,10.191 33.077,12.435C34.465,14.058 34.168,15.414 31.874,17.788" style="fill:rgb(111,36,6);"/>
                        <g transform="matrix(0.74875,0,0,0.727217,7.57778,3.95431)">
                            <path d="M28.941,12.931C30.707,10.695 31.557,9.588 33.539,12.106C34.861,13.784 34.44,15.653 31.992,17.508C31.479,15.668 30.044,14.066 28.941,12.931Z" style="fill:rgb(255,206,140);"/>
                        </g>
                        <path d="M16.108,35.523C16.325,39.271 20.035,39.854 22.515,38.056C24.764,36.425 25.913,32.747 24.171,29.342" style="fill:rgb(186,87,87);"/>
                        <clipPath id="_clip1">
                            <path d="M16.108,35.523C16.325,39.271 20.035,39.854 22.515,38.056C24.764,36.425 25.913,32.747 24.171,29.342"/>
                        </clipPath>
                        <g clip-path="url(#_clip1)">
                            <path d="M17.337,37.397C19.65,34.474 22.629,33.498 24.081,35.425L23.994,39.036L16.623,39.792L17.337,37.397Z" style="fill:rgb(225,151,151);"/>
                            <path d="M16.709,35.345C16.811,37.082 17.425,37.886 18.875,38.022C21.324,38.253 24.213,36.316 25.008,33.12C28.305,38.592 25.787,40.96 18.875,40.981C15.876,39.827 14.338,38.095 15.374,35.345" style="fill:white;"/>
                        </g>
                        <g>
                            <path d="M19.427,17.547C18.324,14.059 15.417,15.606 14.776,17.152C14.267,18.381 14.228,20.129 14.776,21.21C15.506,22.65 17.747,24.305 19.427,21.279C19.865,20.49 19.735,18.522 19.427,17.547Z" style="fill:white;"/>
                            <path d="M23.5,14.989C20.518,14.838 18.529,17.828 19.101,20.275C19.38,21.474 20.275,22.542 21.968,23.047C26.221,24.314 28.194,15.65 23.5,14.989" style="fill:white;"/>
                            <g transform="matrix(1.05952,0.153499,-0.15249,1.05255,1.44489,-4.37471)">
                                <clipPath id="_clip2">
                                    <path d="M22.982,15.046C20.205,15.306 18.767,18.357 19.623,20.557C20.042,21.635 21.012,22.509 22.645,22.75C26.746,23.356 27.41,15.027 22.982,15.046"/>
                                </clipPath>
                                <g clip-path="url(#_clip2)">
                                    <path d="M23.062,17.048C24.572,17.048 25.088,18.282 25.088,19.802C25.088,21.322 24.441,22.556 23.062,22.556C21.552,22.556 21.037,21.322 21.037,19.802C21.037,18.282 21.755,17.048 23.062,17.048Z" style="fill:rgb(65,175,239);"/>
                                    <clipPath id="_clip3">
                                        <path d="M23.062,17.048C24.572,17.048 25.088,18.282 25.088,19.802C25.088,21.322 24.441,22.556 23.062,22.556C21.552,22.556 21.037,21.322 21.037,19.802C21.037,18.282 21.755,17.048 23.062,17.048Z"/>
                                    </clipPath>
                                    <g clip-path="url(#_clip3)">
                                        <g transform="matrix(1,0,0,1,0.368837,-1.57879)">
                                            <path d="M23.062,17.048C24.572,17.048 25.088,18.282 25.088,19.802C25.088,21.322 24.441,22.556 23.062,22.556C21.552,22.556 21.044,21.376 21.044,19.856C21.044,18.336 21.755,17.048 23.062,17.048Z" style="fill:rgb(7,121,188);"/>
                                        </g>
                                        <g transform="matrix(0.53744,1.64783e-17,-1.64783e-17,0.53744,11.0687,9.25602)">
                                            <clipPath id="_clip4">
                                                <path d="M22.982,15.046C20.205,15.306 18.767,18.357 19.623,20.557C20.042,21.635 21.012,22.509 22.645,22.75C26.746,23.356 27.41,15.027 22.982,15.046"/>
                                            </clipPath>
                                            <g clip-path="url(#_clip4)">
                                                <path d="M23.062,17.048C24.572,17.048 25.088,18.282 25.088,19.802C25.088,21.322 24.441,22.556 23.062,22.556C21.552,22.556 21.037,21.322 21.037,19.802C21.037,18.282 21.755,17.048 23.062,17.048Z"/>
                                            </g>
                                        </g>
                                        <g transform="matrix(0.264491,0.0301672,-0.0297719,0.264491,17.1628,13.1906)">
                                            <clipPath id="_clip5">
                                                <path d="M22.982,15.046C20.205,15.306 18.767,18.357 19.623,20.557C20.042,21.635 21.012,22.509 22.645,22.75C26.746,23.356 27.41,15.027 22.982,15.046"/>
                                            </clipPath>
                                            <g clip-path="url(#_clip5)">
                                                <path d="M23.062,17.048C24.572,17.048 25.088,18.282 25.088,19.802C25.088,21.322 24.441,22.556 23.062,22.556C21.552,22.556 21.037,21.322 21.037,19.802C21.037,18.282 21.755,17.048 23.062,17.048Z" style="fill:white;"/>
                                            </g>
                                        </g>
                                    </g>
                                    <path d="M25.086,19.953C25.086,19.962 25.085,19.97 25.085,19.978C25.067,20.476 24.984,20.868 24.875,21.175C25.011,20.789 25.073,20.363 25.086,19.953ZM24.325,22.071C24.007,22.377 23.588,22.556 23.062,22.556C21.552,22.556 21.037,21.322 21.037,19.802C21.037,18.282 21.755,17.048 23.062,17.048C24.498,17.048 25.035,18.164 25.084,19.58C25.07,19.213 25.019,18.875 24.95,18.61C24.561,17.118 23.478,17.07 23.062,17.067L23.062,17.299C23.062,17.306 22.531,17.235 22.045,17.628C21.357,18.183 21.1,19.281 21.19,20.41C21.316,21.985 22.134,22.536 23.157,22.522C23.751,22.515 24.131,22.252 24.325,22.071ZM24.875,21.175C24.87,21.188 24.865,21.202 24.861,21.215C24.773,21.452 24.66,21.665 24.522,21.848C24.638,21.694 24.769,21.476 24.875,21.175Z" style="fill:rgb(7,121,188);"/>
                                </g>
                            </g>
                            <g transform="matrix(0.976398,-0.00871671,0.0091843,1.02877,-5.67531,-0.415767)">
                                <path d="M23.062,17.048C24.664,17.048 25.088,18.282 25.088,19.802C25.088,21.322 24.416,22.556 23.062,22.556C21.461,22.556 21.11,21.416 21.11,19.896C21.11,18.375 21.869,17.048 23.062,17.048Z" style="fill:rgb(65,175,239);"/>
                                <clipPath id="_clip6">
                                    <path d="M23.062,17.048C24.664,17.048 25.088,18.282 25.088,19.802C25.088,21.322 24.416,22.556 23.062,22.556C21.461,22.556 21.11,21.416 21.11,19.896C21.11,18.375 21.869,17.048 23.062,17.048Z"/>
                                </clipPath>
                                <g clip-path="url(#_clip6)">
                                    <g transform="matrix(1,0,0,1,0.661429,-1.55465)">
                                        <path d="M23.062,17.048C24.664,17.048 25.088,18.282 25.088,19.802C25.088,21.322 24.416,22.556 23.062,22.556C21.461,22.556 20.622,20.935 21.017,19.398C21.396,17.921 21.869,17.048 23.062,17.048Z" style="fill:rgb(7,121,188);"/>
                                    </g>
                                    <g transform="matrix(0.53744,-2.16183e-18,-2.27597e-17,0.53744,11.0608,9.33321)">
                                        <clipPath id="_clip7">
                                            <path d="M25.328,17.462C23.752,13.788 20.732,15.77 19.87,17.392C17.949,21.006 21.567,25.434 25.638,21.482C25.656,21.464 25.675,21.446 25.694,21.428"/>
                                        </clipPath>
                                        <g clip-path="url(#_clip7)">
                                            <path d="M23.062,17.048C24.664,17.048 25.088,18.282 25.088,19.802C25.088,21.322 24.416,22.556 23.062,22.556C21.461,22.556 21.037,21.322 21.037,19.802C21.037,18.282 21.869,17.048 23.062,17.048Z"/>
                                        </g>
                                    </g>
                                    <g transform="matrix(0.280835,0.0606888,-0.0622655,0.25954,17.4675,12.6085)">
                                        <clipPath id="_clip8">
                                            <path d="M25.328,17.462C23.752,13.788 20.732,15.77 19.87,17.392C17.949,21.006 21.567,25.434 25.638,21.482C25.656,21.464 25.675,21.446 25.694,21.428"/>
                                        </clipPath>
                                        <g clip-path="url(#_clip8)">
                                            <path d="M23.062,17.048C24.664,17.048 25.088,18.282 25.088,19.802C25.088,21.322 24.416,22.556 23.062,22.556C21.461,22.556 21.037,21.322 21.037,19.802C21.037,18.282 21.869,17.048 23.062,17.048Z" style="fill:white;"/>
                                        </g>
                                    </g>
                                </g>
                                <path d="M25.052,20.39C25.052,20.391 25.052,20.391 25.052,20.391C25.025,20.607 24.983,20.813 24.925,21.007C25.031,20.648 25.084,20.249 25.088,19.832C25.088,19.855 25.087,19.878 25.087,19.9C25.083,20.058 25.073,20.225 25.052,20.39ZM23.948,22.34C23.695,22.479 23.4,22.556 23.062,22.556C21.461,22.556 21.11,21.416 21.11,19.896C21.11,18.376 21.869,17.048 23.062,17.048L23.062,17.307C22.89,17.304 22.333,17.294 21.83,17.998C21.555,18.383 21.285,19.033 21.255,19.896C21.197,21.55 21.606,22.497 23.078,22.532C23.508,22.542 23.818,22.414 23.99,22.317C23.98,22.323 23.971,22.328 23.961,22.333C23.956,22.336 23.952,22.339 23.948,22.34ZM24.302,22.082C24.251,22.13 24.198,22.174 24.143,22.216C24.216,22.161 24.285,22.101 24.349,22.036C24.333,22.052 24.318,22.067 24.302,22.082ZM24.349,22.036C24.502,21.879 24.672,21.651 24.811,21.325C24.72,21.54 24.607,21.733 24.471,21.9C24.432,21.947 24.392,21.992 24.349,22.036ZM23.062,17.048C24.589,17.048 25.045,18.168 25.085,19.589C25.08,19.443 25.07,19.296 25.054,19.147C24.985,18.494 24.805,17.971 24.482,17.613C24.003,17.084 23.343,17.07 23.062,17.068L23.062,17.048Z" style="fill:rgb(7,121,188);"/>
                            </g>
                            <g transform="matrix(0.260875,0.114682,-0.0945952,0.215183,19.9731,15.1626)">
                                <clipPath id="_clip9">
                                    <path d="M22.982,15.046C20.205,15.306 18.767,18.357 19.623,20.557C20.042,21.635 21.012,22.509 22.645,22.75C26.746,23.356 27.41,15.027 22.982,15.046"/>
                                </clipPath>
                                <g clip-path="url(#_clip9)">
                                    <path d="M23.062,17.048C24.572,17.048 25.088,18.282 25.088,19.802C25.088,21.322 24.441,22.556 23.062,22.556C21.552,22.556 21.037,21.322 21.037,19.802C21.037,18.282 21.755,17.048 23.062,17.048Z" style="fill:white;"/>
                                </g>
                            </g>
                            <g transform="matrix(0.27972,0.0291679,-0.0255573,0.245094,12.2906,16.2888)">
                                <clipPath id="_clip10">
                                    <path d="M25.328,17.462C23.752,13.788 20.732,15.77 19.87,17.392C17.949,21.006 21.567,25.434 25.638,21.482C25.656,21.464 25.675,21.446 25.694,21.428"/>
                                </clipPath>
                                <g clip-path="url(#_clip10)">
                                    <path d="M23.062,17.048C24.664,17.048 25.088,18.282 25.088,19.802C25.088,21.322 24.416,22.556 23.062,22.556C21.461,22.556 21.037,21.322 21.037,19.802C21.037,18.282 21.869,17.048 23.062,17.048Z" style="fill:white;"/>
                                </g>
                            </g>
                        </g>
                        <path d="M22.021,9.551C17.546,8.366 12.927,8.618 10.575,14.496C13.332,15.58 16.969,14.792 20.963,12.389" style="fill:rgb(111,36,6);"/>
                        <g transform="matrix(0.99548,-0.0949726,0.0949726,0.99548,-0.729626,2.03017)">
                            <path d="M20.504,9.189C16.028,8.005 12.927,8.618 10.575,14.496C13.332,15.58 16.969,14.792 20.963,12.389" style="fill:rgb(111,36,6);"/>
                        </g>
                        <g transform="matrix(0.932428,-0.164274,0.175814,0.997929,-0.109592,3.46156)">
                            <path d="M20.504,9.189C16.028,8.005 12.927,8.618 10.575,14.496C13.332,15.58 16.969,14.792 20.963,12.389" style="fill:rgb(111,36,6);"/>
                        </g>
                        <path d="M21.228,22.768C17.758,23.429 15.151,21.035 12.225,20.129C8.051,18.838 3.034,23.309 2.945,24.615C2.399,32.669 6.556,35.739 11.337,36.053C16.118,36.366 23.547,33.798 24.983,26.952" style="fill:rgb(255,206,140);"/>
                        <clipPath id="_clip11">
                            <path d="M21.228,22.768C17.758,23.429 15.151,21.035 12.225,20.129C8.051,18.838 3.034,23.309 2.945,24.615C2.399,32.669 6.556,35.739 11.337,36.053C16.118,36.366 23.547,33.798 24.983,26.952"/>
                        </clipPath>
                        <g clip-path="url(#_clip11)">
                            <path d="M14.98,35.788C13.095,36.183 9.808,35.962 7.43,33.8C4.424,31.068 4.608,26.832 4.776,25.035C4.786,24.927 4.861,24.866 4.874,24.856C4.901,24.835 4.932,24.818 4.964,24.808C5.072,24.777 5.155,24.823 5.17,24.831C5.265,24.883 5.291,24.972 5.296,24.988C5.306,25.021 5.305,25.057 5.306,25.092C5.307,25.149 5.082,26.554 5.219,28.18C5.782,34.87 11.575,36.34 14.934,35.795L14.98,35.788Z" style="fill:rgb(180,138,80);"/>
                        </g>
                    </g>
                    <path d="M5.583,25.051C3.978,25 2.552,24.013 1.936,22.53C1.188,20.728 0.716,18.644 1.413,16.951C2.107,15.266 4.098,14.029 6.544,13.982C8.55,13.943 11.204,15.606 11.897,17.253C12.608,18.94 12.621,21.373 10.011,23.906C9.283,24.611 8.32,25.02 7.307,25.056C6.781,25.074 6.209,25.071 5.583,25.051Z" style="fill:rgb(49,49,49);"/>
                    <path d="M5.291,19.898C5.039,19.32 4.979,18.579 5.104,18.052C5.24,17.478 8.438,17.548 8.072,18.561C7.976,18.828 7.077,19.806 7.077,19.806C7.785,18.616 7.609,18.466 7.395,18.461C6.487,18.437 5.784,18.913 5.291,19.898Z"/>
                    <g transform="matrix(-0.540336,-0.220184,-0.310328,0.761552,11.9366,5.53434)">
                        <path d="M5.291,19.898C5.039,19.32 4.979,18.579 5.104,18.052C5.24,17.478 8.438,17.548 8.072,18.561C7.976,18.828 7.077,19.806 7.077,19.806C7.785,18.616 7.609,18.466 7.395,18.461C6.487,18.437 5.784,18.913 5.291,19.898Z"/>
                    </g>
                </g>
            </g>
        </g>
    </g>
</svg>
