<?xml version="1.0" encoding="UTF-8" standalone="no"?>
<!DOCTYPE svg PUBLIC "-//W3C//DTD SVG 1.1//EN" "http://www.w3.org/Graphics/SVG/1.1/DTD/svg11.dtd">
<svg width="100%" height="100%" viewBox="0 0 301 293" version="1.1" xmlns="http://www.w3.org/2000/svg" xmlns:xlink="http://www.w3.org/1999/xlink" xml:space="preserve" xmlns:serif="http://www.serif.com/" style="fill-rule:evenodd;clip-rule:evenodd;stroke-linejoin:round;stroke-miterlimit:2;">
    <g transform="matrix(1,0,0,1,-446,-345)">
        <path id="Cloud4" d="M507.232,547.816C501.885,550.184 495.97,551.5 489.75,551.5C465.88,551.5 446.5,532.12 446.5,508.25C446.5,484.38 465.88,465 489.75,465C496.442,465 502.78,466.523 508.438,469.241C508.211,467.861 508.092,466.444 508.092,465C508.092,456.045 512.646,448.144 519.562,443.49C516.331,439.168 514.417,433.806 514.417,428C514.417,413.701 526.026,402.092 540.325,402.092C544.387,402.092 548.232,403.029 551.656,404.698C558.101,398.629 566.782,394.908 576.325,394.908C578.586,394.908 580.798,395.117 582.943,395.516C582.325,392.678 582,389.731 582,386.709C582,363.919 600.502,345.417 623.291,345.417C645.367,345.417 663.42,362.779 664.529,384.581C666.116,384.142 667.782,383.908 669.5,383.908C680.262,383.908 689,393.094 689,404.408L688.998,404.729C692.46,401.423 697.058,399.408 702.099,399.408C708.585,399.408 714.336,402.744 717.882,407.873C719.085,407.628 720.328,407.5 721.599,407.5C732.361,407.5 741.099,416.686 741.099,428C741.099,432.836 739.502,437.284 736.833,440.791C739.534,445.046 741.099,450.092 741.099,455.5C741.099,470.678 728.777,483 713.599,483C707.252,483 701.405,480.845 696.749,477.228C695.363,487.436 688.367,495.872 678.972,499.323C678.991,499.879 679,500.439 679,501C679,507.623 677.683,513.941 675.297,519.706C676.122,521.635 676.733,523.677 677.1,525.803C685.992,530.361 692.083,539.62 692.083,550.291C692.083,550.59 692.078,550.888 692.069,551.184C695.81,551.993 699.161,553.931 701.787,556.643C706.24,553.716 711.501,552.024 717.135,552.024C733.148,552.024 746.147,565.691 746.147,582.524C746.147,589.606 743.847,596.127 739.989,601.306C741.31,604.095 742.049,607.212 742.049,610.5C742.049,622.38 732.404,632.024 720.524,632.024C715.35,632.024 710.599,630.194 706.885,627.147C701.859,633.741 693.923,638 685,638C669.822,638 657.5,625.678 657.5,610.5C657.5,607.508 657.979,604.626 658.864,601.929C649.258,601.088 641.62,592.914 641.036,582.753C640.047,582.915 639.033,583 638,583C631.267,583 625.326,579.405 621.822,573.942C618.019,576.272 613.811,578.004 609.33,579.006C606.616,586.84 599.485,592.451 591.111,592.5C591.691,594.787 592,597.182 592,599.648C592,615.654 579.006,628.648 563,628.648C555.88,628.648 549.356,626.077 544.307,621.813C541.916,622.913 539.275,623.524 536.5,623.524C525.738,623.524 517,614.339 517,603.024C517,597.125 519.376,591.804 523.175,588.063C519.493,585.907 517,581.774 517,577.033C517,574.591 517.661,572.31 518.806,570.377C511.821,567.258 506.917,559.976 506.917,551.5C506.917,550.242 507.025,549.011 507.232,547.816Z" style="fill:white;"/>
    </g>
</svg>
