<?xml version="1.0" encoding="UTF-8" standalone="no"?>
<!DOCTYPE svg PUBLIC "-//W3C//DTD SVG 1.1//EN" "http://www.w3.org/Graphics/SVG/1.1/DTD/svg11.dtd">
<svg width="100%" height="100%" viewBox="0 0 461 154" version="1.1" xmlns="http://www.w3.org/2000/svg" xmlns:xlink="http://www.w3.org/1999/xlink" xml:space="preserve" xmlns:serif="http://www.serif.com/" style="fill-rule:evenodd;clip-rule:evenodd;stroke-linejoin:round;stroke-miterlimit:2;">
    <g transform="matrix(1,0,0,1,-104,-128)">
        <path id="Cloud1" d="M541.776,256.714C556.651,258.998 565,261.564 565,264.275C565,273.809 461.716,281.55 334.5,281.55C207.284,281.55 104,273.809 104,264.275C104,260.866 117.201,257.687 139.978,255.009C136.85,250.725 135,245.429 135,239.7C135,225.461 146.426,213.9 160.5,213.9C166.004,213.9 171.103,215.668 175.272,218.673C177.641,197.762 195.214,181.5 216.512,181.5C231.842,181.5 245.242,189.926 252.431,202.446C257.117,190.196 268.878,181.5 282.631,181.5C290.836,181.5 298.332,184.596 304.04,189.694C304.013,188.966 304,188.235 304,187.5C304,154.661 330.661,128 363.5,128C380.444,128 395.742,135.098 406.583,146.479C410.731,137.908 419.439,132 429.5,132C441.276,132 451.198,140.093 454.124,151.077C457.505,150.371 461.007,150 464.593,150C492.936,150 515.972,173.174 516.185,201.801C516.786,201.767 517.391,201.75 518,201.75C535.865,201.75 550.369,216.425 550.369,234.5C550.369,243.07 547.109,250.875 541.776,256.714Z" style="fill:white;"/>
    </g>
</svg>
