<?xml version="1.0" encoding="UTF-8" standalone="no"?>
<!DOCTYPE svg PUBLIC "-//W3C//DTD SVG 1.1//EN" "http://www.w3.org/Graphics/SVG/1.1/DTD/svg11.dtd">
<svg width="100%" height="100%" viewBox="0 0 461 167" version="1.1" xmlns="http://www.w3.org/2000/svg" xmlns:xlink="http://www.w3.org/1999/xlink" xml:space="preserve" xmlns:serif="http://www.serif.com/" style="fill-rule:evenodd;clip-rule:evenodd;stroke-linejoin:round;stroke-miterlimit:2;">
    <g transform="matrix(1,0,0,1,-659,-115)">
        <g id="Cloud2" transform="matrix(1,0,0,1,555,0)">
            <path d="M542.735,256.863C557.009,259.11 565,261.623 565,264.275C565,273.809 461.716,281.55 334.5,281.55C207.284,281.55 104,273.809 104,264.275C104,261.041 115.882,258.014 136.55,255.424C133.075,251.144 130.988,245.666 130.988,239.7C130.988,226.013 141.972,214.9 155.5,214.9C160.086,214.9 164.379,216.177 168.051,218.398C168.017,217.769 168,217.137 168,216.5C168,197.459 183.279,182 202.099,182C209.626,182 216.587,184.473 222.23,188.659C226.718,160.251 251.339,138.5 281,138.5C288.882,138.5 296.409,140.036 303.296,142.825C317.767,126.151 339.111,115.6 362.9,115.6C391.852,115.6 417.183,131.228 430.91,154.501C435.157,152.885 439.757,152 444.56,152C465.981,152 483.372,169.596 483.372,191.269C483.372,192.715 483.295,194.143 483.144,195.548C487.017,193.597 491.383,192.5 496,192.5C511.956,192.5 524.91,205.606 524.91,221.75C524.91,223.717 524.718,225.638 524.351,227.496C526.498,226.534 528.873,226 531.371,226C540.958,226 548.741,233.875 548.741,243.575C548.741,248.88 546.413,253.64 542.735,256.863Z" style="fill:white;"/>
        </g>
    </g>
</svg>
