<?xml version="1.0" encoding="UTF-8" standalone="no"?>
<!DOCTYPE svg PUBLIC "-//W3C//DTD SVG 1.1//EN" "http://www.w3.org/Graphics/SVG/1.1/DTD/svg11.dtd">
<svg width="100%" height="100%" viewBox="0 0 295 167" version="1.1" xmlns="http://www.w3.org/2000/svg" xmlns:xlink="http://www.w3.org/1999/xlink" xml:space="preserve" xmlns:serif="http://www.serif.com/" style="fill-rule:evenodd;clip-rule:evenodd;stroke-linejoin:round;stroke-miterlimit:2;">
    <g transform="matrix(1,0,0,1,-1190,-115)">
        <g id="Cloud3" transform="matrix(1,0,0,1,991.5,2.84217e-14)">
            <path d="M211.793,257.103C203.71,250.792 198.5,240.894 198.5,229.775C198.5,210.734 213.779,195.275 232.599,195.275L232.611,195.275C234.309,170.098 255.297,150.174 280.901,150.174C287.974,150.174 294.694,151.694 300.753,154.426C311.82,131.462 335.322,115.6 362.5,115.6C391.518,115.6 416.345,133.682 426.32,159.183C430.023,156.91 434.367,155.6 439.012,155.6C452.54,155.6 463.523,166.713 463.523,180.4C463.523,182.645 463.228,184.821 462.674,186.89C479.579,191.132 492.124,206.599 492.124,225.006C492.124,237.763 486.099,249.107 476.773,256.282C487.456,258.673 493.5,261.392 493.5,264.275C493.5,273.809 427.407,281.55 346,281.55C264.593,281.55 198.5,273.809 198.5,264.275C198.5,261.717 203.258,259.288 211.793,257.103Z" style="fill:white;"/>
        </g>
    </g>
</svg>
