<?xml version="1.0" encoding="UTF-8" standalone="no"?>
<!DOCTYPE svg PUBLIC "-//W3C//DTD SVG 1.1//EN" "http://www.w3.org/Graphics/SVG/1.1/DTD/svg11.dtd">
<svg width="100%" height="100%" viewBox="0 0 2180 2160" version="1.1" xmlns="http://www.w3.org/2000/svg" xmlns:xlink="http://www.w3.org/1999/xlink" xml:space="preserve" xmlns:serif="http://www.serif.com/" style="fill-rule:evenodd;clip-rule:evenodd;stroke-linejoin:round;stroke-miterlimit:2;">
    <g transform="matrix(0.837799,0,0,0.823158,362.599,628.361)">
        <path d="M2169.26,-763.354L2169.26,1860.69L-432.8,1860.69L-432.8,-763.354L2169.26,-763.354ZM576.269,847.984L660.512,1167.98L950.699,1088.84C912.269,1067.12 882.2,1030.18 869.936,983.6C845.93,892.416 899.177,798.549 988.767,774.117C1078.36,749.684 1170.58,803.878 1194.59,895.062C1206.85,941.647 1198.96,988.933 1176.35,1027.3L1466.53,948.162L1382.27,628.092C1360.47,662.883 1326.33,689.805 1284.12,701.316C1194.53,725.75 1102.3,671.558 1078.3,580.372C1054.29,489.188 1107.54,395.321 1197.13,370.888C1239.34,359.377 1282.13,365.317 1318.1,384.358L1250.56,127.805L960.463,206.919C983.019,168.569 990.892,121.33 978.639,74.789C954.634,-16.395 862.407,-70.589 772.817,-46.157C683.227,-21.724 629.98,72.143 653.985,163.327C666.238,209.868 696.263,246.771 734.637,268.505L444.539,347.619L512.06,604.091C476.111,585.098 433.361,579.18 391.193,590.679C301.6,615.113 248.356,708.979 272.362,800.163C296.368,891.349 388.591,945.541 478.184,921.108C520.352,909.608 554.468,882.73 576.269,847.984Z" style="fill:#1F63C2"/>
    </g>
</svg>
