<?xml version="1.0" encoding="UTF-8" standalone="no"?>
<!DOCTYPE svg PUBLIC "-//W3C//DTD SVG 1.1//EN" "http://www.w3.org/Graphics/SVG/1.1/DTD/svg11.dtd">
<svg width="100%" height="100%" viewBox="0 0 6187 2625" version="1.1" xmlns="http://www.w3.org/2000/svg" xmlns:xlink="http://www.w3.org/1999/xlink" xml:space="preserve" xmlns:serif="http://www.serif.com/" style="fill-rule:evenodd;clip-rule:evenodd;stroke-linejoin:round;stroke-miterlimit:2;">
    <g id="Logo_Straight_Flat" transform="matrix(10,0,0,10,-3663.81,-2085)">
        <g id="Recompiled" transform="matrix(0.360118,0,0,0.360118,423.391,291.626)">
            <g transform="matrix(0.947975,-0.168081,0.210678,1.18822,-116.354,-242.973)">
                <path d="M1453.77,566.638C1453.77,566.638 1503.92,567.541 1513,568.082C1522.08,568.623 1534.9,569.94 1541.5,571.008C1548.1,572.076 1556.88,573.883 1561,575.024C1565.12,576.165 1572.66,579.101 1577.75,581.549C1584.56,584.825 1588.88,587.783 1594.12,592.75C1598.03,596.462 1602.29,601.3 1603.58,603.5C1604.86,605.7 1606.84,610.2 1607.97,613.5C1609.53,618.043 1610.03,621.988 1610.02,629.75C1610.01,635.747 1609.32,642.801 1608.37,646.75C1607.47,650.462 1605.07,657.1 1603.02,661.5C1600.98,665.9 1597.27,672.2 1594.77,675.5C1592.28,678.8 1587.37,684.2 1583.86,687.5C1580.36,690.8 1574.34,695.605 1570.49,698.178C1566.65,700.751 1559.45,704.858 1554.5,707.305C1549.55,709.752 1541.45,713.225 1536.5,715.021C1531.55,716.818 1522.33,719.599 1516,721.201C1509.67,722.803 1498.65,724.973 1491.5,726.022C1484.35,727.071 1472.79,728.283 1453.12,729.5L1453.77,566.638ZM1499.15,599.629L1500.82,683.931C1500.82,683.931 1505.64,682.975 1509.07,681.807C1512.51,680.639 1518.46,678.052 1522.3,676.057C1526.13,674.063 1531.93,669.956 1535.18,666.931C1538.43,663.906 1542.34,659.631 1543.85,657.431C1545.37,655.231 1547.59,650.506 1548.79,646.931C1550.11,643.005 1550.99,637.856 1551.02,633.931C1551.04,630.356 1550.44,625.432 1549.69,622.99C1548.92,620.48 1546.37,616.4 1543.82,613.608C1541.35,610.891 1537.64,607.827 1535.57,606.799C1533.51,605.771 1528.56,604.019 1524.57,602.906C1520.59,601.792 1513.23,600.599 1508.24,600.255L1499.15,599.629Z" style="fill:rgb(255,10,1);"/>
                <path d="M1454.03,557.436C1454.03,557.436 1504.69,558.357 1513.86,558.903C1523.39,559.472 1536.86,560.865 1543.79,561.987C1550.9,563.137 1560.34,565.099 1564.78,566.328C1569.44,567.616 1577.96,570.904 1583.71,573.667C1591.71,577.516 1596.79,580.988 1602.95,586.825C1607.58,591.217 1612.5,597.001 1614.03,599.604C1615.51,602.129 1617.81,607.286 1619.1,611.073C1620.89,616.3 1621.57,620.831 1621.55,629.761C1621.54,636.369 1620.75,644.14 1619.7,648.492C1618.71,652.57 1616.09,659.866 1613.84,664.699C1611.57,669.589 1607.42,676.583 1604.65,680.25C1601.91,683.88 1596.52,689.824 1592.66,693.454C1588.79,697.094 1582.15,702.392 1577.91,705.231C1573.74,708.02 1565.94,712.477 1560.58,715.129C1555.27,717.753 1546.59,721.473 1541.28,723.399C1536.02,725.309 1526.21,728.271 1519.49,729.974C1512.8,731.668 1501.15,733.965 1493.59,735.074C1486.21,736.156 1474.29,737.422 1454.01,738.677L1441.54,739.448L1442.27,557.224L1454.03,557.436ZM1453.77,566.638L1453.12,729.5C1472.79,728.283 1484.35,727.071 1491.5,726.022C1498.65,724.973 1509.67,722.803 1516,721.201C1522.33,719.599 1531.55,716.818 1536.5,715.021C1541.45,713.225 1549.55,709.752 1554.5,707.305C1559.45,704.858 1566.65,700.751 1570.49,698.178C1574.34,695.605 1580.36,690.8 1583.86,687.5C1587.37,684.2 1592.28,678.8 1594.77,675.5C1597.27,672.2 1600.98,665.9 1603.02,661.5C1605.07,657.1 1607.47,650.462 1608.37,646.75C1609.32,642.801 1610.01,635.747 1610.02,629.75C1610.03,621.988 1609.53,618.043 1607.97,613.5C1606.84,610.2 1604.86,605.7 1603.58,603.5C1602.29,601.3 1598.03,596.462 1594.12,592.75C1588.88,587.783 1584.56,584.825 1577.75,581.549C1572.66,579.101 1565.12,576.165 1561,575.024C1556.88,573.883 1548.1,572.076 1541.5,571.008C1534.9,569.94 1522.08,568.623 1513,568.082C1503.92,567.541 1453.77,566.638 1453.77,566.638ZM1499.15,599.629L1508.24,600.255C1513.23,600.599 1520.59,601.792 1524.57,602.906C1528.56,604.019 1533.51,605.771 1535.57,606.799C1537.64,607.827 1541.35,610.891 1543.82,613.608C1546.37,616.4 1548.92,620.48 1549.69,622.99C1550.44,625.432 1551.04,630.356 1551.02,633.931C1550.99,637.856 1550.11,643.005 1548.79,646.931C1547.59,650.506 1545.37,655.231 1543.85,657.431C1542.34,659.631 1538.43,663.906 1535.18,666.931C1531.93,669.956 1526.13,674.063 1522.3,676.057C1518.46,678.052 1512.51,680.639 1509.07,681.807C1505.64,682.975 1500.82,683.931 1500.82,683.931L1499.15,599.629ZM1510.89,609.785L1512.09,670.241C1513.5,669.595 1514.85,668.94 1515.99,668.347C1519.1,666.73 1523.79,663.389 1526.42,660.937C1529.15,658.4 1532.47,654.841 1533.74,652.996C1534.96,651.23 1536.68,647.419 1537.65,644.549C1538.73,641.329 1539.46,637.104 1539.48,633.884C1539.5,631.043 1539.08,627.126 1538.49,625.184C1537.98,623.523 1536.17,620.867 1534.49,619.019C1532.93,617.308 1530.76,615.253 1529.46,614.606C1527.84,613.796 1523.9,612.471 1520.76,611.593C1518.35,610.918 1514.43,610.221 1510.89,609.785Z" style="fill:rgb(246,206,39);"/>
            </g>
            <g transform="matrix(1.04522,0.199058,-0.199058,1.04522,142.696,-460.435)">
                <path d="M539,563.592C544.225,562.834 552.1,562.171 556.5,562.117C560.9,562.063 569,562.682 574.5,563.492C580,564.303 588.1,566.131 592.5,567.556C596.9,568.98 602.975,571.457 606,573.059C609.025,574.661 614.178,578.116 617.452,580.736C620.726,583.356 625.592,588.2 628.267,591.5C630.941,594.8 634.657,600.65 636.526,604.5C638.394,608.35 640.899,615.325 642.092,620C643.774,626.594 644.269,631.528 644.3,642C644.331,652.835 643.9,657.178 642.113,664C640.889,668.675 637.928,676.55 635.533,681.5C633.138,686.45 628.967,693.425 626.263,697C623.56,700.575 618.907,705.573 615.924,708.106C612.941,710.639 608.25,714.252 605.5,716.135C602.75,718.019 596.9,721.062 592.5,722.898C588.1,724.734 581.125,727.089 577,728.131C572.875,729.174 563.65,730.554 556.5,731.2C545.329,732.208 541.812,732.138 531.5,730.698C524.9,729.776 516.35,727.966 512.5,726.675C508.65,725.384 502.35,722.688 498.5,720.684C494.65,718.68 488.8,714.76 485.5,711.973C482.2,709.186 477.582,704.565 475.237,701.703C472.892,698.841 469.224,693.125 467.084,689C464.945,684.875 462.451,679.025 461.542,676C460.633,672.975 459.483,666.675 458.986,662C458.429,656.751 458.455,649.675 459.055,643.5C459.716,636.698 461.135,630.302 463.493,623.5C465.399,618 469.106,609.967 471.73,605.648C474.353,601.329 479.66,594.579 483.522,590.648C487.384,586.717 493.234,581.714 496.522,579.532C499.81,577.35 505.425,574.129 509,572.376C512.575,570.622 518.65,568.238 522.5,567.078C526.35,565.918 533.775,564.349 539,563.592ZM541.677,596.787C538.927,597.287 534.652,598.694 532.177,599.914C529.702,601.134 525.636,604.177 523.143,606.675C520.649,609.174 517.47,613.243 516.078,615.718C514.686,618.193 512.509,623.143 511.241,626.718C509.554,631.471 508.791,636.309 508.403,644.718C508.069,651.944 508.331,658.634 509.109,662.718C509.79,666.293 511.618,671.918 513.171,675.218C514.725,678.518 517.949,683.222 520.336,685.671C522.723,688.12 527.152,691.255 530.177,692.638C534.582,694.652 537.169,695.136 543.177,695.068C548.216,695.011 552.481,694.293 556.177,692.879C559.202,691.723 563.677,689.3 566.123,687.497C568.568,685.694 572.301,681.518 574.418,678.218C576.534,674.918 579.239,669.068 580.429,665.218C582.212,659.446 582.599,655.673 582.634,643.718C582.67,631.463 582.335,628.134 580.468,622.218C579.254,618.368 576.891,613.08 575.218,610.468C573.545,607.855 570.039,604.177 567.427,602.293C564.814,600.409 561.102,598.414 559.177,597.86C557.252,597.307 553.652,596.634 551.177,596.367C548.702,596.099 544.427,596.288 541.677,596.787Z" style="fill:rgb(255,10,1);"/>
                <path d="M537.503,553.26C543.136,552.444 551.628,551.736 556.372,551.678C561.175,551.619 570.018,552.28 576.022,553.164C582.04,554.051 590.901,556.065 595.715,557.624C600.663,559.226 607.485,562.032 610.886,563.834C614.341,565.663 620.237,569.593 623.975,572.586C627.729,575.59 633.31,581.143 636.377,584.927C639.466,588.739 643.76,595.495 645.918,599.942C648.025,604.284 650.862,612.147 652.207,617.419C654.085,624.779 654.705,630.28 654.739,641.97C654.774,654.125 654.216,658.991 652.212,666.644C650.855,671.826 647.585,680.56 644.93,686.047C642.263,691.559 637.6,699.315 634.59,703.296C631.48,707.41 626.114,713.149 622.681,716.063C619.453,718.805 614.374,722.711 611.398,724.749C608.247,726.907 601.562,730.428 596.52,732.532C591.706,734.541 584.071,737.112 579.557,738.253C575.105,739.377 565.155,740.9 557.439,741.597C545.202,742.701 541.351,742.614 530.056,741.037C522.802,740.023 513.413,737.991 509.181,736.573C504.919,735.143 497.942,732.162 493.68,729.944C489.262,727.644 482.551,723.146 478.765,719.949C475.031,716.796 469.815,711.557 467.162,708.319C464.48,705.047 460.263,698.523 457.817,693.806C455.384,689.113 452.579,682.445 451.545,679.004C450.512,675.567 449.17,668.415 448.606,663.103C447.984,657.255 447.996,649.371 448.664,642.49C449.405,634.869 450.988,627.702 453.629,620.081C455.75,613.962 459.889,605.032 462.808,600.228C465.762,595.366 471.727,587.758 476.075,583.332C480.427,578.902 487.044,573.294 490.749,570.834C494.347,568.446 500.491,564.922 504.403,563.003C508.397,561.044 515.186,558.379 519.488,557.082C523.692,555.815 531.797,554.087 537.503,553.26ZM539,563.592C533.775,564.349 526.35,565.918 522.5,567.078C518.65,568.238 512.575,570.622 509,572.376C505.425,574.129 499.81,577.35 496.522,579.532C493.234,581.714 487.384,586.717 483.522,590.648C479.66,594.579 474.353,601.329 471.73,605.648C469.106,609.967 465.399,618 463.493,623.5C461.135,630.302 459.716,636.698 459.055,643.5C458.455,649.675 458.429,656.751 458.986,662C459.483,666.675 460.633,672.975 461.542,676C462.451,679.025 464.945,684.875 467.084,689C469.224,693.125 472.892,698.841 475.237,701.703C477.582,704.565 482.2,709.186 485.5,711.973C488.8,714.76 494.65,718.68 498.5,720.684C502.35,722.688 508.65,725.384 512.5,726.675C516.35,727.966 524.9,729.776 531.5,730.698C541.812,732.138 545.329,732.208 556.5,731.2C563.65,730.554 572.875,729.174 577,728.131C581.125,727.089 588.1,724.734 592.5,722.898C596.9,721.062 602.75,718.019 605.5,716.135C608.25,714.252 612.941,710.639 615.924,708.106C618.907,705.573 623.56,700.575 626.263,697C628.967,693.425 633.138,686.45 635.533,681.5C637.928,676.55 640.889,668.675 642.113,664C643.9,657.178 644.331,652.835 644.3,642C644.269,631.528 643.774,626.594 642.092,620C640.899,615.325 638.394,608.35 636.526,604.5C634.657,600.65 630.941,594.8 628.267,591.5C625.592,588.2 620.726,583.356 617.452,580.736C614.178,578.116 609.025,574.661 606,573.059C602.975,571.457 596.9,568.98 592.5,567.556C588.1,566.131 580,564.303 574.5,563.492C569,562.682 560.9,562.063 556.5,562.117C552.1,562.171 544.225,562.834 539,563.592ZM541.677,596.787C544.427,596.288 548.702,596.099 551.177,596.367C553.652,596.634 557.252,597.307 559.177,597.86C561.102,598.414 564.814,600.409 567.427,602.293C570.039,604.177 573.545,607.855 575.218,610.468C576.891,613.08 579.254,618.368 580.468,622.218C582.335,628.134 582.67,631.463 582.634,643.718C582.599,655.673 582.212,659.446 580.429,665.218C579.239,669.068 576.534,674.918 574.418,678.218C572.301,681.518 568.568,685.694 566.123,687.497C563.677,689.3 559.202,691.723 556.177,692.879C552.481,694.293 548.216,695.011 543.177,695.068C537.169,695.136 534.582,694.652 530.177,692.638C527.152,691.255 522.723,688.12 520.336,685.671C517.949,683.222 514.725,678.518 513.171,675.218C511.618,671.918 509.79,666.293 509.109,662.718C508.331,658.634 508.069,651.944 508.403,644.718C508.791,636.309 509.554,631.471 511.241,626.718C512.509,623.143 514.686,618.193 516.078,615.718C517.47,613.243 520.649,609.174 523.143,606.675C525.636,604.177 529.702,601.134 532.177,599.914C534.652,598.694 538.927,597.287 541.677,596.787ZM543.541,607.059C541.588,607.414 538.551,608.41 536.793,609.277C535.066,610.128 532.272,612.306 530.532,614.05C528.653,615.932 526.226,618.971 525.177,620.835C523.992,622.942 522.159,627.165 521.079,630.209C519.676,634.163 519.154,638.205 518.831,645.2C518.542,651.447 518.692,657.234 519.364,660.765C519.909,663.627 521.373,668.13 522.617,670.772C523.746,673.172 526.075,676.603 527.811,678.384C529.44,680.054 532.454,682.2 534.517,683.144C537.405,684.464 539.12,684.674 543.059,684.629C546.694,684.588 549.782,684.148 552.448,683.129C554.721,682.26 558.089,680.45 559.927,679.095C561.628,677.841 564.158,674.877 565.631,672.582C567.331,669.931 569.499,665.229 570.455,662.137C571.984,657.188 572.165,653.938 572.195,643.687C572.225,633.249 572.102,630.398 570.513,625.359C569.557,622.331 567.743,618.152 566.427,616.097C565.333,614.389 563.029,611.992 561.321,610.76C559.705,609.595 557.48,608.235 556.29,607.893C554.79,607.461 551.982,606.954 550.054,606.745C548.357,606.562 545.427,606.717 543.541,607.059Z" style="fill:rgb(246,206,39);"/>
            </g>
            <g transform="matrix(1.064,0.00293671,-0.00293671,1.064,64.9525,-391.373)">
                <path d="M188.5,566.5L283,562.392L286,600L238.5,601.5L238,631L278.5,629.5L279.053,665.5L238,664L238.5,691.5L288.5,691.648L288.869,729.5L188.763,727.196L188.5,566.5Z" style="fill:rgb(255,10,1);"/>
                <path d="M292.606,551.525L297.277,610.088L248.769,611.62L248.625,620.16L288.774,618.673L289.661,676.334L248.638,674.835L248.752,681.091L298.838,681.239L299.413,740.185L178.34,737.398L178.044,556.505L292.606,551.525ZM188.5,566.5L188.763,727.196L288.869,729.5L288.5,691.648L238.5,691.5L238,664L279.053,665.5L278.5,629.5L238,631L238.5,601.5L286,600L283,562.392L188.5,566.5Z" style="fill:rgb(246,206,39);"/>
            </g>
            <g transform="matrix(1.04861,0.180358,-0.180358,1.04861,5.77831,-625.581)">
                <path d="M1312.5,566.5L1406.95,562.381L1410,600L1362.5,601.5L1362,631L1402.5,629.5L1403.05,665.5L1362.5,664.5L1362.5,691.5L1412.5,691.648L1413.4,730L1312.76,727.198L1312.5,566.5Z" style="fill:rgb(255,10,1);"/>
                <path d="M1416.55,551.514L1421.29,610.088L1372.77,611.62L1372.62,620.16L1412.77,618.673L1413.66,676.204L1372.94,675.2L1372.94,681.092L1422.7,681.239L1424.09,740.741L1302.34,737.351L1302.04,556.507L1416.55,551.514ZM1312.5,566.5L1312.76,727.198L1413.4,730L1412.5,691.648L1362.5,691.5L1362.5,664.5L1403.05,665.5L1402.5,629.5L1362,631L1362.5,601.5L1410,600L1406.95,562.381L1312.5,566.5Z" style="fill:rgb(246,206,39);"/>
            </g>
            <g transform="matrix(1.02568,0.0329802,-0.0385519,1.19897,83.484,-505.135)">
                <path d="M402.5,568.69C413.44,565.179 426,563.5 426,563.5L434.843,606.609C434.843,606.609 420.24,608.596 405,614.911C400.875,616.62 395.079,619.477 392.12,621.26C389.16,623.042 384.098,627.087 380.87,630.25C377.641,633.412 373.937,638.137 372.637,640.75C371.337,643.362 369.707,647.975 369.014,651C368.321,654.025 368.034,658.187 368.377,660.25C368.72,662.312 370.066,666.137 371.37,668.75C372.673,671.362 375.374,674.962 377.37,676.75C379.366,678.537 383.362,681.18 386.25,682.623C389.137,684.065 394.875,686.145 399,687.244C415.344,691.601 439.41,690.25 439.41,690.25C439.41,690.25 440.156,700.05 441.315,729.5C441.315,729.5 427.875,731.299 421,731.636C412.157,732.07 404.55,731.769 395,730.608C387.575,729.705 377.225,727.826 372,726.432C366.775,725.038 358.45,721.962 353.5,719.596C348.55,717.23 341.687,713.203 338.25,710.647C334.812,708.091 329.675,703.187 326.832,699.75C323.99,696.312 320.405,690.8 318.866,687.5C317.327,684.2 315.322,678.575 314.41,675C313.21,670.292 312.904,666.156 313.3,660C313.6,655.325 314.558,648.8 315.429,645.5C316.299,642.2 319.008,635.45 321.447,630.5C323.886,625.55 328.946,617.705 332.691,613.067C336.436,608.429 343.39,601.454 348.144,597.567C352.898,593.68 360.998,588.004 366.144,584.953C371.29,581.902 379.1,577.789 383.5,575.813C387.9,573.837 396.45,570.632 402.5,568.69Z" style="fill:rgb(255,10,1);"/>
                <path d="M398.698,560.021C410.631,556.191 424.328,554.352 424.328,554.352L434.825,552.948L447.405,614.276L436.543,615.754C436.543,615.754 423.422,617.566 409.718,623.245C406.08,624.752 400.96,627.259 398.35,628.831C395.888,630.314 391.708,633.709 389.022,636.341C386.536,638.776 383.597,642.364 382.596,644.376C381.531,646.518 380.203,650.301 379.635,652.781C379.173,654.799 378.864,657.57 379.093,658.947C379.342,660.447 380.377,663.215 381.325,665.115C382.175,666.818 383.894,669.188 385.196,670.353C386.656,671.66 389.596,673.572 391.708,674.627C394.086,675.814 398.824,677.499 402.22,678.404C416.971,682.336 438.701,681.01 438.701,681.01L449.507,680.404L450.211,689.648C450.211,689.648 450.965,699.52 452.132,729.189L452.454,737.381L442.988,738.648C442.988,738.648 428.85,740.526 421.619,740.88C412.048,741.35 403.814,741.032 393.477,739.775C385.502,738.806 374.39,736.769 368.778,735.272C362.972,733.723 353.72,730.308 348.22,727.679C342.675,725.028 335.001,720.499 331.15,717.636C327.192,714.693 321.268,709.055 317.996,705.097C314.712,701.125 310.592,694.745 308.813,690.932C307.094,687.246 304.853,680.965 303.835,676.973C302.437,671.486 302.031,666.667 302.492,659.492C302.824,654.323 303.908,647.11 304.871,643.461C305.831,639.821 308.782,632.364 311.473,626.903C314.145,621.481 319.683,612.885 323.785,607.805C327.876,602.738 335.472,595.119 340.665,590.873C345.765,586.703 354.457,580.616 359.978,577.342C365.459,574.093 373.783,569.719 378.469,567.615C383.155,565.51 392.256,562.088 398.698,560.021ZM402.5,568.69C396.45,570.632 387.9,573.837 383.5,575.813C379.1,577.789 371.29,581.902 366.144,584.953C360.998,588.004 352.898,593.68 348.144,597.567C343.39,601.454 336.436,608.429 332.691,613.067C328.946,617.705 323.886,625.55 321.447,630.5C319.008,635.45 316.299,642.2 315.429,645.5C314.558,648.8 313.6,655.325 313.3,660C312.904,666.156 313.21,670.292 314.41,675C315.322,678.575 317.327,684.2 318.866,687.5C320.405,690.8 323.99,696.312 326.832,699.75C329.675,703.187 334.812,708.091 338.25,710.647C341.687,713.203 348.55,717.23 353.5,719.596C358.45,721.962 366.775,725.038 372,726.432C377.225,727.826 387.575,729.705 395,730.608C404.55,731.769 412.157,732.07 421,731.636C427.875,731.299 441.315,729.5 441.315,729.5C440.156,700.05 439.41,690.25 439.41,690.25C439.41,690.25 415.344,691.601 399,687.244C394.875,686.145 389.137,684.065 386.25,682.623C383.362,681.18 379.366,678.537 377.37,676.75C375.374,674.962 372.673,671.362 371.37,668.75C370.066,666.137 368.72,662.312 368.377,660.25C368.034,658.187 368.321,654.025 369.014,651C369.707,647.975 371.337,643.362 372.637,640.75C373.937,638.137 377.641,633.412 380.87,630.25C384.098,627.087 389.16,623.042 392.12,621.26C395.079,619.477 400.875,616.62 405,614.911C420.24,608.596 434.843,606.609 434.843,606.609L426,563.5C426,563.5 413.44,565.179 402.5,568.69Z" style="fill:rgb(246,206,39);"/>
            </g>
            <g transform="matrix(1.05983,-0.144381,0.144381,1.05983,-195.007,-170.812)">
                <path d="M1179.68,566.733L1231.45,566.5L1230.8,689.5L1281,688L1281,730L1179.5,727.5L1179.68,566.733Z" style="fill:rgb(255,10,1);"/>
                <path d="M1241.89,556.068L1241.24,678.799L1291.38,677.301L1291.38,740.643L1169.1,737.632L1169.31,556.395L1241.89,556.068ZM1179.68,566.733L1179.5,727.5L1281,730L1281,688L1230.8,689.5L1231.45,566.5L1179.68,566.733Z" style="fill:rgb(246,206,39);"/>
            </g>
            <g transform="matrix(0.963854,0.246283,-0.246283,0.963854,178.436,-570.32)">
                <path d="M1079.47,567.25L1130.5,566.765L1129.5,727.576L1079.5,727.5L1079.47,567.25ZM1095.66,474.159C1113.72,469.544 1132.13,480.46 1136.75,498.52C1141.36,516.581 1130.44,534.99 1112.38,539.605C1094.32,544.219 1075.91,533.303 1071.3,515.243C1066.68,497.183 1077.6,478.774 1095.66,474.159Z" style="fill:rgb(255,10,1);"/>
                <path d="M1141.74,555.493L1140.6,738.758L1068.34,738.648L1068.3,556.19L1141.74,555.493ZM1079.47,567.25L1079.5,727.5L1129.5,727.576L1130.5,566.765L1079.47,567.25ZM1092.9,463.341C1116.93,457.201 1141.42,471.726 1147.56,495.756C1153.7,519.787 1139.18,544.282 1115.15,550.422C1091.12,556.563 1066.62,542.038 1060.48,518.007C1054.34,493.977 1068.87,469.482 1092.9,463.341ZM1095.66,474.159C1077.6,478.774 1066.68,497.183 1071.3,515.243C1075.91,533.303 1094.32,544.219 1112.38,539.605C1130.44,534.99 1141.36,516.581 1136.75,498.52C1132.13,480.46 1113.72,469.544 1095.66,474.159Z" style="fill:rgb(246,206,39);"/>
            </g>
            <g transform="matrix(1.13646,-0.212896,0.212896,1.13646,-275.218,-208.192)">
                <path d="M917.58,567.14C917.58,567.14 966.475,567.546 975,568.101C983.525,568.657 994.1,569.782 998.5,570.601C1002.9,571.42 1009.43,573.02 1013,574.156C1016.58,575.291 1021.98,577.586 1025,579.255C1028.03,580.924 1032.46,583.911 1034.85,585.894C1037.25,587.877 1040.68,591.75 1042.49,594.5C1044.3,597.25 1046.51,601.975 1047.4,605C1048.29,608.025 1049.01,613.425 1048.99,617C1048.98,620.575 1048.25,626.2 1047.38,629.5C1046.51,632.8 1044.52,637.975 1042.96,641C1041.4,644.025 1038.07,649.087 1035.56,652.25C1033.05,655.412 1027.74,660.589 1023.75,663.754C1019.76,666.919 1012.68,671.491 1008,673.915C1003.33,676.338 995.9,679.553 991.5,681.06C987.1,682.567 979.795,684.632 967.034,687.5L966.5,727.5L917.5,727.5L917.58,567.14ZM967.284,598.82C966.944,599.102 968.75,655.026 968.75,655.026C968.75,655.026 973.65,653.503 977.5,651.61C981.864,649.464 986.176,646.348 988.95,643.334C991.397,640.675 994.307,636.475 995.416,634C996.77,630.976 997.431,627.367 997.429,623C997.427,618.242 996.833,615.361 995.213,612.25C993.996,609.912 991.537,606.903 989.75,605.561C987.962,604.22 984.812,602.42 982.75,601.561C980.687,600.703 976.503,599.619 973.45,599.153C970.398,598.688 967.623,598.538 967.284,598.82Z" style="fill:rgb(255,10,1);"/>
                <path d="M917.659,557.534C917.659,557.534 967.019,557.954 975.625,558.515C984.562,559.098 995.646,560.298 1000.26,561.157C1005.01,562.041 1012.05,563.774 1015.91,565C1020,566.3 1026.18,568.933 1029.64,570.843C1033.12,572.765 1038.22,576.213 1040.98,578.497C1043.97,580.971 1048.26,585.794 1050.52,589.224C1052.76,592.643 1055.5,598.521 1056.61,602.282C1057.71,606.003 1058.62,612.643 1058.6,617.041C1058.58,621.306 1057.71,628.014 1056.67,631.951C1055.65,635.811 1053.32,641.865 1051.5,645.403C1049.72,648.848 1045.94,654.62 1043.09,658.221C1040.24,661.805 1034.24,667.692 1029.72,671.279C1025.34,674.756 1017.56,679.782 1012.42,682.444C1007.38,685.059 999.361,688.522 994.612,690.149C990.959,691.4 985.385,693.032 976.539,695.157L975.979,737.107L907.888,737.107L907.978,557.454L917.659,557.534ZM917.58,567.14L917.5,727.5L966.5,727.5L967.034,687.5C979.795,684.632 987.1,682.567 991.5,681.06C995.9,679.553 1003.33,676.338 1008,673.915C1012.68,671.491 1019.76,666.919 1023.75,663.754C1027.74,660.589 1033.05,655.412 1035.56,652.25C1038.07,649.087 1041.4,644.025 1042.96,641C1044.52,637.975 1046.51,632.8 1047.38,629.5C1048.25,626.2 1048.98,620.575 1048.99,617C1049.01,613.425 1048.29,608.025 1047.4,605C1046.51,601.975 1044.3,597.25 1042.49,594.5C1040.68,591.75 1037.25,587.877 1034.85,585.894C1032.46,583.911 1028.03,580.924 1025,579.255C1021.98,577.586 1016.58,575.291 1013,574.156C1009.43,573.02 1002.9,571.42 998.5,570.601C994.1,569.782 983.525,568.657 975,568.101C966.475,567.546 917.58,567.14 917.58,567.14ZM967.284,598.82C967.623,598.538 970.398,598.688 973.45,599.153C976.503,599.619 980.687,600.703 982.75,601.561C984.812,602.42 987.962,604.22 989.75,605.561C991.537,606.903 993.996,609.912 995.213,612.25C996.833,615.361 997.427,618.242 997.429,623C997.431,627.367 996.77,630.976 995.416,634C994.307,636.475 991.397,640.675 988.95,643.334C986.176,646.348 981.864,649.464 977.5,651.61C973.65,653.503 968.75,655.026 968.75,655.026C968.75,655.026 966.944,599.102 967.284,598.82ZM977.026,609.752C977.239,618.464 977.603,630.722 977.896,640.239C979.431,639.158 980.813,637.989 981.882,636.828C983.664,634.892 985.841,631.875 986.649,630.072C987.516,628.135 987.823,625.802 987.822,623.004C987.821,620.223 987.639,618.506 986.692,616.687C986.075,615.502 984.891,613.925 983.984,613.245C982.726,612.301 980.509,611.034 979.057,610.43C978.532,610.211 977.823,609.978 977.026,609.752Z" style="fill:rgb(246,206,39);"/>
            </g>
            <g transform="matrix(1.06249,-0.0567811,0.0567811,1.06249,-62.9341,-281.153)">
                <path d="M649.011,717.25L712.271,561.965L767.75,649.988L822,565L889.264,714.21L845,734L813,653.927L763,724.788L716.848,655.699L692.964,733.5L649.011,717.25Z" style="fill:rgb(255,10,1);"/>
                <path d="M710.268,539.21L767.806,630.498L823.585,543.115L903.084,719.466L839.339,747.966L810.443,675.659L762.764,743.228L754.319,730.586L720.377,679.776L699.702,747.121L635.274,723.301L710.268,539.21ZM649.011,717.25L692.964,733.5L716.848,655.699L763,724.788L813,653.927L845,734L889.264,714.21L822,565L767.75,649.988L712.271,561.965L649.011,717.25Z" style="fill:rgb(246,206,39);"/>
            </g>
            <g transform="matrix(1.08113,-0.335873,0.335873,1.08113,-134.652,-352.131)">
                <path d="M12.847,566.637C12.847,566.637 23.708,566.071 36.416,566.436C49.112,566.8 66.925,567.536 76,568.071C85.075,568.606 97.225,569.966 103,571.092C108.775,572.218 116.425,574.297 120,575.713C123.575,577.129 128.948,579.91 131.94,581.894C134.932,583.877 138.842,587.525 140.629,590C142.416,592.475 144.401,596.3 145.04,598.5C145.685,600.722 146.033,606.278 145.823,611C145.503,618.206 144.923,620.566 142.015,626.5C139.88,630.857 136.072,636.143 131.928,640.5C128.267,644.35 118.094,653.01 118.238,653.633L163.692,703.5L123.5,733.989L69.186,654.5C69.186,654.5 80.862,642.642 83.75,639.575C86.637,636.509 89.864,632.087 90.921,629.75C91.977,627.412 93.141,623.925 93.506,622C93.871,620.075 93.681,616.587 93.085,614.25C92.488,611.912 90.762,608.589 89.25,606.864C87.737,605.139 84.925,602.944 83,601.987C81.075,601.03 77.137,599.741 74.25,599.123C71.362,598.505 67.425,598 62,598L62.376,727.5L13.5,727.5L12.847,566.637Z" style="fill:rgb(255,10,1);"/>
                <path d="M131.928,654.088L178.177,704.827L121.216,748.037L72.038,676.065L72.216,737.311L3.728,737.311L2.998,557.325L12.337,556.839C12.337,556.839 23.562,556.252 36.697,556.629C49.489,556.995 67.435,557.738 76.578,558.277C86.09,558.838 98.824,560.281 104.878,561.462C111.245,562.703 119.671,565.03 123.612,566.591C127.73,568.221 133.915,571.431 137.361,573.716C141.238,576.286 146.269,581.05 148.584,584.257C150.995,587.596 153.599,592.795 154.462,595.763C155.272,598.552 155.889,605.51 155.625,611.436C155.224,620.451 154.464,623.393 150.826,630.817C148.322,635.927 143.897,642.152 139.038,647.261C137.556,648.82 134.631,651.582 131.928,654.088ZM71.927,637.692C73.93,635.638 75.703,633.809 76.607,632.849C78.728,630.596 81.204,627.426 81.98,625.709C82.737,624.035 83.605,621.55 83.866,620.172C84.031,619.302 83.848,617.733 83.578,616.676C83.309,615.622 82.555,614.11 81.873,613.333C81.085,612.434 79.634,611.271 78.631,610.772C77.219,610.07 74.315,609.171 72.197,608.717C72.081,608.693 71.963,608.668 71.842,608.644L71.927,637.692ZM12.847,566.637L13.5,727.5L62.376,727.5L62,598C67.425,598 71.362,598.505 74.25,599.123C77.137,599.741 81.075,601.03 83,601.987C84.925,602.944 87.737,605.139 89.25,606.864C90.762,608.589 92.488,611.912 93.085,614.25C93.681,616.587 93.871,620.075 93.506,622C93.141,623.925 91.977,627.412 90.921,629.75C89.864,632.087 86.637,636.509 83.75,639.575C80.862,642.642 69.186,654.5 69.186,654.5L123.5,733.989L163.692,703.5L118.238,653.633C118.094,653.01 128.267,644.35 131.928,640.5C136.072,636.143 139.88,630.857 142.015,626.5C144.923,620.566 145.503,618.206 145.823,611C146.033,606.278 145.685,600.722 145.04,598.5C144.401,596.3 142.416,592.475 140.629,590C138.842,587.525 134.932,583.877 131.94,581.894C128.948,579.91 123.575,577.129 120,575.713C116.425,574.297 108.775,572.218 103,571.092C97.225,569.966 85.075,568.606 76,568.071C66.925,567.536 49.112,566.8 36.416,566.436C23.708,566.071 12.847,566.637 12.847,566.637Z" style="fill:rgb(246,206,39);"/>
            </g>
            <g transform="matrix(2.566,0,0,2.03516,-1107.52,-445.085)">
                <path d="M416,374L455,379L450,402L412,392L416,374Z" style="fill:rgb(255,10,1);"/>
                <path d="M460.527,374.223L453.099,408.391L406.582,396.15L412.814,368.106L460.527,374.223ZM416,374L412,392L450,402L455,379L416,374Z" style="fill:rgb(246,206,39);"/>
            </g>
        </g>
        <g id="Banjo" transform="matrix(0.264339,0,0,0.264339,484.749,397.569)">
            <g transform="matrix(3.78302,0,0,3.78302,-1833.82,-1504.01)">
                <path d="M766,303L804,317L798,336L761,320L766,303Z" style="fill:rgb(0,16,193);"/>
                <path d="M808.963,314.566L800.48,341.43L756.164,322.267L763.369,297.768L808.963,314.566ZM766,303L761,320L798,336L804,317L766,303Z" style="fill:rgb(246,206,39);"/>
            </g>
            <g transform="matrix(4.52879,-0.706015,0.601004,3.85519,-2494.82,-1035.92)">
                <path d="M688,262C711.732,262 731,281.268 731,305C731,328.732 711.732,348 688,348C664.268,348 645,328.732 645,305C645,281.268 664.268,262 688,262ZM686.736,281.169C680.098,280.486 672.252,289.296 671.294,302.157C670.335,315.019 675.433,325.028 683.518,325.86C691.603,326.691 698.002,317.733 698.96,304.871C699.919,292.01 694.821,282 686.736,281.169Z" style="fill:rgb(0,16,193);"/>
                <path d="M688,258.122C713.689,258.122 734.301,279.311 734.301,305C734.301,330.689 713.689,351.878 688,351.878C662.311,351.878 641.699,330.689 641.699,305C641.699,279.311 662.311,258.122 688,258.122ZM688,262C664.268,262 645,281.268 645,305C645,328.732 664.268,348 688,348C711.732,348 731,328.732 731,305C731,281.268 711.732,262 688,262ZM686.736,281.169C694.821,282 699.919,292.01 698.96,304.871C698.002,317.733 691.603,326.691 683.518,325.86C675.433,325.028 670.335,315.019 671.294,302.157C672.252,289.296 680.098,280.486 686.736,281.169ZM686.449,285.032C684.565,284.839 682.585,285.85 680.794,287.564C677.591,290.631 675.069,295.964 674.582,302.495C673.811,312.849 677.297,321.327 683.806,321.996C690.317,322.666 694.9,314.892 695.672,304.533C696.443,294.18 692.957,285.702 686.449,285.032Z" style="fill:rgb(246,206,39);"/>
            </g>
            <g transform="matrix(2.12811,-0.0451237,0.0451237,2.12811,-524.093,-585.119)">
                <path d="M156.074,164.906L242.855,14.747L339.387,156.697L289.256,186.299L273.571,152.318L214.799,157.705L203.44,190.955L156.074,164.906ZM243.2,82.294L221.439,125.451L264.336,122.978L243.2,82.294Z" style="fill:rgb(0,16,193);"/>
                <path d="M242.366,1.386L349.526,158.966L286.098,196.42L269.22,159.856L220.037,164.363L207.431,201.263L146.285,167.636L242.366,1.386ZM156.074,164.906L203.44,190.955L214.799,157.705L273.571,152.318L289.256,186.299L339.387,156.697L242.855,14.747L156.074,164.906ZM243.2,82.294L264.336,122.978L221.439,125.451L243.2,82.294ZM243.295,97.896L233.337,117.645L252.966,116.513L243.295,97.896Z" style="fill:rgb(246,206,39);"/>
            </g>
            <g transform="matrix(1.94297,0.318004,-0.318004,1.94297,-524.976,-776.579)">
                <path d="M369.691,18.009L483.36,98.004L478,17.409L539.249,7.384L541.418,183.349L423.042,111.308L431.533,190.147L372.18,197.141L369.691,18.009Z" style="fill:rgb(0,16,193);"/>
                <path d="M474.623,82.457L469.868,10.952L546.824,-1.644L549.275,197.128L432.351,125.971L439.99,196.89L364.613,205.772L361.796,3.055L474.623,82.457ZM369.691,18.009L372.18,197.141L431.533,190.147L423.042,111.308L541.418,183.349L539.249,7.384L478,17.409L483.36,98.004L369.691,18.009Z" style="fill:rgb(246,206,39);"/>
            </g>
            <g transform="matrix(3.78302,0,0,3.78302,-1833.82,-1504.01)">
                <path d="M610.206,333.804C616.887,330.957 621.256,326.162 623.866,319.885C626.476,313.607 623,274 622.317,264.736L655.155,261.893L656.155,317.885C656,334 641.301,355.095 624.646,362.971C610.882,335.287 622.803,359.468 610.206,333.804ZM633.671,214C644.339,214 653,222.738 653,233.5C653,244.262 644.339,253 633.671,253C623.004,253 614.343,244.262 614.343,233.5C614.343,222.738 623.004,214 633.671,214Z" style="fill:rgb(0,16,193);"/>
                <path d="M608.638,330.124C614.285,327.718 617.966,323.655 620.172,318.349C620.859,316.698 620.875,312.405 620.812,307.002C620.643,292.705 618.803,271.477 618.327,265.03L618.037,261.091L659.078,257.538L660.156,317.868L660.155,317.923C659.988,335.282 644.297,358.103 626.356,366.587L622.81,368.264L621.064,364.752C607.292,337.05 619.22,361.246 606.615,335.567L604.756,331.779L608.638,330.124ZM610.206,333.804C622.803,359.468 610.882,335.287 624.646,362.971C641.301,355.095 656,334 656.155,317.885L655.155,261.893L622.317,264.736C623,274 626.476,313.607 623.866,319.885C621.256,326.162 616.887,330.957 610.206,333.804ZM633.671,210C646.537,210 657,220.52 657,233.5C657,246.48 646.537,257 633.671,257C620.806,257 610.343,246.48 610.343,233.5C610.343,220.52 620.806,210 633.671,210ZM633.671,214C623.004,214 614.343,222.738 614.343,233.5C614.343,244.262 623.004,253 633.671,253C644.339,253 653,244.262 653,233.5C653,222.738 644.339,214 633.671,214Z" style="fill:rgb(246,206,39);"/>
            </g>
            <g transform="matrix(3.78302,0,0,3.78302,-1833.82,-1504.01)">
                <path d="M371.876,275.444C385.052,270.504 397.473,266.724 407.289,265.238C420.76,263.2 430.922,264.846 436.043,270.05C441.411,275.504 441.239,284.866 433.531,297.987C459.114,293.223 462.752,314.299 452.527,329.659C448.766,335.31 440.425,339.2 432.531,343.743C418.256,351.956 403.172,358.997 403.172,358.997L371.876,275.444ZM396.716,279.272L409.642,303.727C424.606,287.13 413.699,276.461 396.716,279.272ZM414.854,314.557L419.54,339.244C438.828,329.143 437.104,311.031 414.854,314.557Z" style="fill:rgb(0,16,193);"/>
                <path d="M370.472,271.699C383.945,266.647 396.653,262.802 406.69,261.283C421.823,258.993 433.141,261.399 438.894,267.244C444.219,272.655 445.623,281.408 440.429,293.304C448.35,293.307 453.829,296.064 457.25,300.049C463.834,307.72 463.08,321.025 455.857,331.876C451.817,337.945 443.005,342.331 434.526,347.21C420.103,355.508 404.863,362.621 404.863,362.621L400.943,364.451L366.727,273.102L370.472,271.699ZM371.876,275.444L403.172,358.997C403.172,358.997 418.256,351.956 432.531,343.743C440.425,339.2 448.766,335.31 452.527,329.659C462.752,314.299 459.114,293.223 433.531,297.987C441.239,284.866 441.411,275.504 436.043,270.05C430.922,264.846 420.76,263.2 407.289,265.238C397.473,266.724 385.052,270.504 371.876,275.444ZM414.854,314.557C437.104,311.031 438.828,329.143 419.54,339.244L414.854,314.557ZM419.599,318.106L422.378,332.745C424.24,331.327 425.727,329.823 426.827,328.294C428.313,326.227 429.088,324.188 428.818,322.383C428.606,320.97 427.608,319.866 426.029,319.147C424.371,318.393 422.225,318.035 419.599,318.106ZM396.716,279.272C413.699,276.461 424.606,287.13 409.642,303.727L396.716,279.272ZM403.131,282.85L410.277,296.368C411.352,294.655 412.068,293.047 412.441,291.545C412.94,289.535 412.759,287.808 411.849,286.467C410.844,284.985 409.099,284.016 406.955,283.433C405.783,283.114 404.502,282.92 403.131,282.85Z" style="fill:rgb(246,206,39);"/>
            </g>
        </g>
        <g id="drop_shadow" transform="matrix(0.1,0,0,0.1,366.381,208.5)">
            <g id="recompiled">
                <g transform="matrix(3.69367,0.118767,-0.138832,4.31769,772.738,-889.818)">
                    <clipPath id="_clip1">
                        <path d="M223.779,569.222L321.592,563.117L325.846,596.383L276.664,598.95L277.045,625.118L318.972,622.733L320.642,654.635L278.05,654.375L279.406,678.744L331.229,677.572L332.764,711.122L228.946,711.687L223.779,569.222Z"/>
                    </clipPath>
                    <g clip-path="url(#_clip1)">
                        <path d="M398.698,560.021C410.631,556.191 424.328,554.352 424.328,554.352L434.825,552.948L447.405,614.276L436.543,615.754C436.543,615.754 423.422,617.566 409.718,623.245C406.08,624.752 400.96,627.259 398.35,628.831C395.888,630.314 391.708,633.709 389.022,636.341C386.536,638.776 383.597,642.364 382.596,644.376C381.531,646.518 380.203,650.301 379.635,652.781C379.173,654.799 378.864,657.57 379.093,658.947C379.342,660.447 380.377,663.215 381.325,665.115C382.175,666.818 383.894,669.188 385.196,670.353C386.656,671.66 389.596,673.572 391.708,674.627C394.086,675.814 398.824,677.499 402.22,678.404C416.971,682.336 438.701,681.01 438.701,681.01L449.507,680.404L450.211,689.648C450.211,689.648 450.965,699.52 452.132,729.189L452.454,737.381L442.988,738.648C442.988,738.648 428.85,740.526 421.619,740.88C412.048,741.35 403.814,741.032 393.477,739.775C385.502,738.806 374.39,736.769 368.778,735.272C362.972,733.723 353.72,730.308 348.22,727.679C342.675,725.028 335.001,720.499 331.15,717.636C327.192,714.693 321.268,709.055 317.996,705.097C314.712,701.125 310.592,694.745 308.813,690.932C307.094,687.246 304.853,680.965 303.835,676.973C302.437,671.486 302.031,666.667 302.492,659.492C302.824,654.323 303.908,647.11 304.871,643.461C305.831,639.821 308.782,632.364 311.473,626.903C314.145,621.481 319.683,612.885 323.785,607.805C327.876,602.738 335.472,595.119 340.665,590.873C345.765,586.703 354.457,580.616 359.978,577.342C365.459,574.093 373.783,569.719 378.469,567.615C383.155,565.51 392.256,562.088 398.698,560.021Z" style="fill-opacity:0.4;"/>
                    </g>
                </g>
                <g transform="matrix(3.69367,0.118767,-0.138832,4.31769,772.738,-889.818)">
                    <clipPath id="_clip2">
                        <path d="M342.164,679.813L344.018,720.32L218.455,721.004L212.639,560.634L331.216,553.233L337.54,602.678C337.395,602.959 337.257,603.233 337.125,603.5C336.869,604.021 336.61,604.559 336.351,605.111L287.615,607.655L287.725,615.23L329.29,612.866L329.83,623.177C329.089,627.01 328.398,632.144 328.144,636.089C327.684,643.264 328.089,648.083 329.488,653.57C330.014,655.634 330.867,658.31 331.806,660.923L331.965,663.964L289.405,663.704L289.713,669.248L334.803,668.228C336.428,671.486 339.413,676.18 342.164,679.813ZM223.779,569.222L228.946,711.687L332.764,711.122L331.229,677.572L279.406,678.744L278.05,654.375L320.642,654.635L318.972,622.733L277.045,625.118L276.664,598.95L325.846,596.383L321.592,563.117L223.779,569.222Z"/>
                    </clipPath>
                    <g clip-path="url(#_clip2)">
                        <path d="M398.698,560.021C410.631,556.191 424.328,554.352 424.328,554.352L434.825,552.948L447.405,614.276L436.543,615.754C436.543,615.754 423.422,617.566 409.718,623.245C406.08,624.752 400.96,627.259 398.35,628.831C395.888,630.314 391.708,633.709 389.022,636.341C386.536,638.776 383.597,642.364 382.596,644.376C381.531,646.518 380.203,650.301 379.635,652.781C379.173,654.799 378.864,657.57 379.093,658.947C379.342,660.447 380.377,663.215 381.325,665.115C382.175,666.818 383.894,669.188 385.196,670.353C386.656,671.66 389.596,673.572 391.708,674.627C394.086,675.814 398.824,677.499 402.22,678.404C416.971,682.336 438.701,681.01 438.701,681.01L449.507,680.404L450.211,689.648C450.211,689.648 450.965,699.52 452.132,729.189L452.454,737.381L442.988,738.648C442.988,738.648 428.85,740.526 421.619,740.88C412.048,741.35 403.814,741.032 393.477,739.775C385.502,738.806 374.39,736.769 368.778,735.272C362.972,733.723 353.72,730.308 348.22,727.679C342.675,725.028 335.001,720.499 331.15,717.636C327.192,714.693 321.268,709.055 317.996,705.097C314.712,701.125 310.592,694.745 308.813,690.932C307.094,687.246 304.853,680.965 303.835,676.973C302.437,671.486 302.031,666.667 302.492,659.492C302.824,654.323 303.908,647.11 304.871,643.461C305.831,639.821 308.782,632.364 311.473,626.903C314.145,621.481 319.683,612.885 323.785,607.805C327.876,602.738 335.472,595.119 340.665,590.873C345.765,586.703 354.457,580.616 359.978,577.342C365.459,574.093 373.783,569.719 378.469,567.615C383.155,565.51 392.256,562.088 398.698,560.021Z" style="fill:rgb(246,159,39);fill-opacity:0.75;"/>
                    </g>
                </g>
                <g transform="matrix(3.47101,0.88691,-0.88691,3.47101,1114.68,-1124.56)">
                    <clipPath id="_clip3">
                        <path d="M912.989,580.215C912.989,580.215 964.715,556.675 973.971,553.082C983.227,549.489 994.923,545.491 999.961,544.198C1005,542.905 1012.66,541.392 1016.98,540.837C1021.31,540.281 1028.12,540.052 1032.13,540.328C1036.13,540.604 1042.27,541.58 1045.77,542.497C1049.26,543.414 1054.78,545.81 1058.03,547.822C1061.29,549.834 1065.93,553.731 1068.35,556.482C1070.77,559.232 1074.18,564.571 1075.91,568.346C1077.65,572.121 1079.64,578.404 1080.34,582.308C1081.04,586.213 1081.48,592.641 1081.32,596.594C1081.16,600.546 1080.13,607.513 1079.04,612.076C1077.94,616.639 1074.88,624.7 1072.23,629.99C1069.58,635.279 1064.35,643.572 1060.61,648.417C1056.87,653.262 1050.62,660.29 1046.73,664.034C1042.83,667.779 1036.14,673.536 1024.1,682.813L1043.14,725.228L991.506,749.246L912.989,580.215ZM980.897,589.237C980.677,589.701 1009.99,647.749 1009.99,647.749C1009.99,647.749 1014.41,643.743 1017.54,639.861C1021.09,635.461 1024.1,630.063 1025.55,625.527C1026.82,621.526 1027.83,615.673 1027.79,612.522C1027.73,608.671 1026.66,604.544 1024.52,599.943C1022.18,594.93 1020.14,592.184 1016.91,589.7C1014.48,587.833 1010.42,585.866 1007.88,585.329C1005.34,584.792 1001.13,584.439 998.539,584.545C995.944,584.651 991.003,585.56 987.559,586.566C984.114,587.571 981.116,588.773 980.897,589.237Z"/>
                    </clipPath>
                    <g clip-path="url(#_clip3)">
                        <path d="M1141.74,555.493L1140.6,738.758L1068.34,738.648L1068.3,556.19L1141.74,555.493ZM1092.9,463.341C1116.93,457.201 1141.42,471.726 1147.56,495.756C1153.7,519.787 1139.18,544.282 1115.15,550.422C1091.12,556.563 1066.62,542.038 1060.48,518.007C1054.34,493.977 1068.87,469.482 1092.9,463.341Z" style="fill-opacity:0.4;"/>
                    </g>
                </g>
                <g transform="matrix(3.47101,0.88691,-0.88691,3.47101,1114.68,-1124.56)">
                    <clipPath id="_clip4">
                        <path d="M1088.05,620.825C1086.44,625.531 1084.23,630.971 1082.21,634.992C1079.3,640.803 1073.56,649.915 1069.45,655.238C1065.42,660.466 1058.67,668.045 1054.46,672.086C1051.22,675.196 1046.15,679.648 1037.87,686.223L1057.84,730.705L986.086,764.08L898.122,574.713L908.364,570.052C908.364,570.052 960.587,546.301 969.931,542.674C979.634,538.907 991.903,534.739 997.185,533.383C1002.62,531.987 1010.89,530.362 1015.56,529.762C1020.51,529.127 1028.31,528.874 1032.9,529.189C1037.51,529.507 1044.58,530.641 1048.6,531.697C1052.96,532.841 1059.85,535.817 1063.91,538.327C1067.95,540.829 1073.72,545.681 1076.73,549.101C1079.71,552.484 1083.92,559.037 1086.06,563.681C1086.71,565.094 1087.39,566.803 1088.04,568.627L1088.05,620.825ZM912.989,580.215L991.506,749.246L1043.14,725.228L1024.1,682.813C1036.14,673.536 1042.83,667.779 1046.73,664.034C1050.62,660.29 1056.87,653.262 1060.61,648.417C1064.35,643.572 1069.58,635.279 1072.23,629.99C1074.88,624.7 1077.94,616.639 1079.04,612.076C1080.13,607.513 1081.16,600.546 1081.32,596.594C1081.48,592.641 1081.04,586.213 1080.34,582.308C1079.64,578.404 1077.65,572.121 1075.91,568.346C1074.18,564.571 1070.77,559.232 1068.35,556.482C1065.93,553.731 1061.29,549.834 1058.03,547.822C1054.78,545.81 1049.26,543.414 1045.77,542.497C1042.27,541.58 1036.13,540.604 1032.13,540.328C1028.12,540.052 1021.31,540.281 1016.98,540.837C1012.66,541.392 1005,542.905 999.961,544.198C994.923,545.491 983.227,549.489 973.971,553.082C964.715,556.675 912.989,580.215 912.989,580.215ZM980.897,589.237C981.116,588.773 984.114,587.571 987.559,586.566C991.003,585.56 995.944,584.651 998.539,584.545C1001.13,584.439 1005.34,584.792 1007.88,585.329C1010.42,585.866 1014.48,587.833 1016.91,589.7C1020.14,592.184 1022.18,594.93 1024.52,599.943C1026.66,604.544 1027.73,608.671 1027.79,612.522C1027.83,615.673 1026.82,621.526 1025.55,625.527C1024.1,630.063 1021.09,635.461 1017.54,639.861C1014.41,643.743 1009.99,647.749 1009.99,647.749C1009.99,647.749 980.677,589.701 980.897,589.237ZM996.521,595.982C1001.02,605.059 1007.41,617.798 1012.38,627.683C1013.47,625.792 1014.35,623.883 1014.91,622.135C1015.84,619.222 1016.65,614.975 1016.62,612.68C1016.59,610.213 1015.77,607.604 1014.39,604.656C1013.03,601.725 1012,600.005 1010.11,598.552C1008.88,597.606 1006.86,596.525 1005.57,596.253C1003.78,595.875 1000.82,595.626 998.995,595.701C998.333,595.728 997.472,595.83 996.521,595.982Z"/>
                    </clipPath>
                    <g clip-path="url(#_clip4)">
                        <path d="M1141.74,555.493L1140.6,738.758L1068.34,738.648L1068.3,556.19L1141.74,555.493ZM1092.9,463.341C1116.93,457.201 1141.42,471.726 1147.56,495.756C1153.7,519.787 1139.18,544.282 1115.15,550.422C1091.12,556.563 1066.62,542.038 1060.48,518.007C1054.34,493.977 1068.87,469.482 1092.9,463.341Z" style="fill:rgb(246,159,39);fill-opacity:0.75;"/>
                    </g>
                </g>
                <g transform="matrix(3.82621,-0.204479,0.204479,3.82621,245.46,-83.2186)">
                    <clipPath id="_clip5">
                        <path d="M617.396,494.057C622.65,494.572 630.455,495.811 634.74,496.812C639.026,497.812 646.742,500.351 651.889,502.453C657.035,504.556 664.462,508.269 668.394,510.705C672.325,513.141 677.631,516.999 680.185,519.278C682.739,521.558 686.916,526.145 689.468,529.472C692.02,532.8 695.586,538.667 697.393,542.511C699.2,546.355 701.41,552.924 702.303,557.109C703.196,561.295 703.959,568.666 703.999,573.491C704.054,580.295 703.355,585.205 700.879,595.38C698.318,605.908 696.859,610.022 693.493,616.218C691.186,620.465 686.427,627.403 682.917,631.636C679.407,635.869 673.688,641.644 670.208,644.468C666.728,647.293 661.015,651.032 657.513,652.778C654.01,654.524 648.591,656.91 645.47,658.08C642.349,659.251 635.941,660.806 631.23,661.536C626.518,662.267 619.182,662.885 614.928,662.91C610.673,662.935 601.386,662.068 594.289,660.984C583.201,659.291 579.803,658.381 570.135,654.516C563.947,652.042 556.079,648.239 552.649,646.064C549.22,643.89 543.748,639.765 540.489,636.898C537.23,634.031 532.488,628.825 529.951,625.33C527.413,621.835 524.034,616.242 522.443,612.903C520.85,609.563 518.656,603.135 517.566,598.618C516.476,594.101 515.454,587.825 515.295,584.67C515.136,581.515 515.527,575.123 516.163,570.465C516.877,565.235 518.595,558.371 520.655,552.519C522.924,546.072 525.832,540.202 529.749,534.161C532.916,529.277 538.437,522.364 542.017,518.798C545.598,515.233 552.365,509.948 557.056,507.055C561.747,504.162 568.624,500.704 572.338,499.372C576.052,498.04 582.275,496.256 586.166,495.409C590.056,494.561 596.525,493.7 600.541,493.494C604.557,493.289 612.141,493.542 617.396,494.057ZM612.053,526.929C609.263,526.756 604.776,527.099 602.081,527.692C599.386,528.285 594.711,530.266 591.692,532.096C588.673,533.925 584.613,537.116 582.669,539.186C580.725,541.256 577.428,545.541 575.341,548.709C572.566,552.92 570.667,557.436 568.278,565.507C566.225,572.444 564.88,579.002 564.658,583.154C564.464,586.788 564.893,592.687 565.612,596.262C566.331,599.838 568.336,605.177 570.068,608.126C571.8,611.075 575.349,615.178 577.956,617.245C581.752,620.255 584.147,621.343 589.997,622.714C594.904,623.865 599.216,624.188 603.143,623.7C606.357,623.3 611.282,622.019 614.088,620.853C616.894,619.687 621.517,616.526 624.362,613.828C627.207,611.13 631.233,606.097 633.309,602.644C636.421,597.466 637.699,593.895 640.593,582.295C643.56,570.405 644.031,567.093 643.634,560.902C643.376,556.873 642.347,551.174 641.348,548.237C640.348,545.3 637.824,540.889 635.738,538.435C633.652,535.981 630.525,533.156 628.788,532.158C627.051,531.159 623.717,529.645 621.378,528.793C619.039,527.941 614.843,527.102 612.053,526.929Z"/>
                    </clipPath>
                    <g clip-path="url(#_clip5)">
                        <path d="M710.268,539.21L767.806,630.498L823.585,543.115L903.084,719.466L839.339,747.966L810.443,675.659L762.764,743.228L754.319,730.586L720.377,679.776L699.702,747.121L635.274,723.301L710.268,539.21Z" style="fill-opacity:0.4;"/>
                    </g>
                </g>
                <g transform="matrix(3.82621,-0.204479,0.204479,3.82621,245.46,-83.2186)">
                    <clipPath id="_clip6">
                        <path d="M683.778,646.105C681.236,648.66 678.705,651.017 676.787,652.574C672.783,655.824 666.2,660.112 662.169,662.121C658.379,664.01 652.513,666.588 649.136,667.855C645.56,669.196 638.227,671.016 632.829,671.852C627.673,672.652 619.645,673.321 614.989,673.349C610.398,673.376 600.372,672.474 592.713,671.304C580.568,669.449 576.849,668.443 566.26,664.209C559.458,661.49 550.829,657.271 547.059,654.881C543.262,652.473 537.201,647.91 533.593,644.736C529.855,641.446 524.414,635.473 521.503,631.463C518.632,627.508 514.82,621.174 513.019,617.395C511.198,613.576 508.665,606.233 507.418,601.068C506.178,595.929 505.049,588.783 504.869,585.195C504.688,581.61 505.097,574.345 505.819,569.053C506.615,563.226 508.513,555.573 510.808,549.052C513.35,541.83 516.601,535.25 520.99,528.482C524.513,523.048 530.668,515.367 534.651,511.401C538.683,507.387 546.295,501.427 551.576,498.17C556.861,494.91 564.627,491.047 568.813,489.546C572.878,488.088 579.686,486.136 583.944,485.208C588.291,484.262 595.52,483.298 600.008,483.069C604.393,482.844 612.676,483.105 618.414,483.667C624.079,484.222 632.493,485.567 637.114,486.646C641.791,487.738 650.219,490.494 655.837,492.79C661.469,495.09 669.59,499.166 673.892,501.831C678.313,504.57 684.265,508.927 687.136,511.49C690.053,514.093 694.838,519.319 697.752,523.119C700.678,526.935 704.768,533.662 706.841,538.07C708.928,542.509 711.481,550.097 712.512,554.931C713.38,558.999 714.149,565.735 714.373,571.002L683.778,646.105ZM617.396,494.057C612.141,493.542 604.557,493.289 600.541,493.494C596.525,493.7 590.056,494.561 586.166,495.409C582.275,496.256 576.052,498.04 572.338,499.372C568.624,500.704 561.747,504.162 557.056,507.055C552.365,509.948 545.598,515.233 542.017,518.798C538.437,522.364 532.916,529.277 529.749,534.161C525.832,540.202 522.924,546.072 520.655,552.519C518.595,558.371 516.877,565.235 516.163,570.465C515.527,575.123 515.136,581.515 515.295,584.67C515.454,587.825 516.476,594.101 517.566,598.618C518.656,603.135 520.85,609.563 522.443,612.903C524.034,616.242 527.413,621.835 529.951,625.33C532.488,628.825 537.23,634.031 540.489,636.898C543.748,639.765 549.22,643.89 552.649,646.064C556.079,648.239 563.947,652.042 570.135,654.516C579.803,658.381 583.201,659.291 594.289,660.984C601.386,662.068 610.673,662.935 614.928,662.91C619.182,662.885 626.518,662.267 631.23,661.536C635.941,660.806 642.349,659.251 645.47,658.08C648.591,656.91 654.01,654.524 657.513,652.778C661.015,651.032 666.728,647.293 670.208,644.468C673.688,641.644 679.407,635.869 682.917,631.636C686.427,627.403 691.186,620.465 693.493,616.218C696.859,610.022 698.318,605.908 700.879,595.38C703.355,585.205 704.054,580.295 703.999,573.491C703.959,568.666 703.196,561.295 702.303,557.109C701.41,552.924 699.2,546.355 697.393,542.511C695.586,538.667 692.02,532.8 689.468,529.472C686.916,526.145 682.739,521.558 680.185,519.278C677.631,516.999 672.325,513.141 668.394,510.705C664.462,508.269 657.035,504.556 651.889,502.453C646.742,500.351 639.026,497.812 634.74,496.812C630.455,495.811 622.65,494.572 617.396,494.057ZM612.053,526.929C614.843,527.102 619.039,527.941 621.378,528.793C623.717,529.645 627.051,531.159 628.788,532.158C630.525,533.156 633.652,535.981 635.738,538.435C637.824,540.889 640.348,545.3 641.348,548.237C642.347,551.174 643.376,556.873 643.634,560.902C644.031,567.093 643.56,570.405 640.593,582.295C637.699,593.895 636.421,597.466 633.309,602.644C631.233,606.097 627.207,611.13 624.362,613.828C621.517,616.526 616.894,619.687 614.088,620.853C611.282,622.019 606.357,623.3 603.143,623.7C599.216,624.188 594.904,623.865 589.997,622.714C584.147,621.343 581.752,620.255 577.956,617.245C575.349,615.178 571.8,611.075 570.068,608.126C568.336,605.177 566.331,599.838 565.612,596.262C564.893,592.687 564.464,586.788 564.658,583.154C564.88,579.002 566.225,572.444 568.278,565.507C570.667,557.436 572.566,552.92 575.341,548.709C577.428,545.541 580.725,541.256 582.669,539.186C584.613,537.116 588.673,533.925 591.692,532.096C594.711,530.266 599.386,528.285 602.081,527.692C604.776,527.099 609.263,526.756 612.053,526.929ZM611.406,537.348C609.425,537.225 606.237,537.467 604.323,537.888C602.443,538.301 599.208,539.747 597.102,541.024C594.828,542.402 591.744,544.772 590.28,546.331C588.625,548.094 585.835,551.756 584.058,554.452C581.75,557.956 580.276,561.756 578.289,568.47C576.514,574.467 575.274,580.121 575.082,583.711C574.927,586.62 575.271,591.342 575.846,594.205C576.369,596.805 577.81,600.694 579.069,602.839C580.251,604.85 582.664,607.655 584.442,609.065C586.93,611.038 588.545,611.651 592.38,612.55C595.919,613.38 599.023,613.692 601.855,613.34C604.27,613.04 607.974,612.089 610.082,611.213C612.034,610.402 615.199,608.13 617.178,606.253C619.463,604.086 622.694,600.04 624.361,597.265C627.029,592.826 627.983,589.714 630.465,579.768C632.992,569.64 633.554,566.843 633.216,561.57C633.013,558.401 632.251,553.91 631.465,551.599C630.811,549.679 629.148,546.801 627.784,545.196C626.494,543.678 624.659,541.825 623.585,541.208C622.232,540.43 619.627,539.266 617.805,538.602C616.201,538.018 613.319,537.467 611.406,537.348Z"/>
                    </clipPath>
                    <g clip-path="url(#_clip6)">
                        <path d="M710.268,539.21L767.806,630.498L823.585,543.115L903.084,719.466L839.339,747.966L810.443,675.659L762.764,743.228L754.319,730.586L720.377,679.776L699.702,747.121L635.274,723.301L710.268,539.21Z" style="fill:rgb(246,159,39);fill-opacity:0.75;"/>
                    </g>
                </g>
            </g>
            <g id="banjo">
                <g transform="matrix(5.13602,0.840609,-0.840609,5.13602,-302.036,-64.1115)">
                    <clipPath id="_clip7">
                        <path d="M416.544,179.859L375.914,215.268L352.539,182.238L291.126,199.555L285.609,237.14L230.12,218.79L292.758,42.056L379.396,129.523L380.155,184.147L416.544,179.859ZM306.446,113.791L291.824,163.96L336.936,152.87L306.446,113.791Z"/>
                    </clipPath>
                    <g clip-path="url(#_clip7)">
                        <path d="M474.623,82.457L469.868,10.952L546.824,-1.644L549.275,197.128L432.351,125.971L439.99,196.89L364.613,205.772L361.796,3.055L474.623,82.457Z" style="fill-opacity:0.4;"/>
                    </g>
                </g>
                <g transform="matrix(5.13602,0.840609,-0.840609,5.13602,-302.036,-64.1115)">
                    <clipPath id="_clip8">
                        <path d="M430.071,178.265L374.553,226.649L349.401,191.109L298.007,205.6L291.884,247.311L220.254,223.623L289.603,27.949L379.242,118.446L379.396,129.523L292.758,42.056L230.12,218.79L285.609,237.14L291.126,199.555L352.539,182.238L375.914,215.268L416.544,179.859L430.071,178.265ZM306.446,113.791L336.936,152.87L291.824,163.96L306.446,113.791ZM309.623,130.358L302.932,153.314L323.575,148.24L309.623,130.358Z"/>
                    </clipPath>
                    <g clip-path="url(#_clip8)">
                        <path d="M474.623,82.457L469.868,10.952L546.824,-1.644L549.275,197.128L432.351,125.971L439.99,196.89L364.613,205.772L361.796,3.055L474.623,82.457Z" style="fill:rgb(246,159,39);fill-opacity:0.75;"/>
                    </g>
                </g>
                <g transform="matrix(10,0,0,10,-3761.81,-1987)">
                    <clipPath id="_clip9">
                        <path d="M617.001,320.937L563.696,275.218L561.43,316.424L530.358,315.027L544.138,222.815L595.794,273.456L599.816,231.611L621.499,231.611C623.179,236.34 626.322,240.368 630.375,243.145L629.161,251.177L627.837,251.291L628.127,255.23C628.166,255.755 628.214,256.377 628.269,257.086L618.737,320.194C618.638,320.238 618.538,320.282 618.438,320.324L617.001,320.937Z"/>
                    </clipPath>
                    <g clip-path="url(#_clip9)">
                        <path d="M608.638,330.124C614.285,327.718 617.966,323.655 620.172,318.349C620.859,316.698 620.875,312.405 620.812,307.002C620.643,292.705 618.803,271.477 618.327,265.03L618.037,261.091L659.078,257.538L660.156,317.868L660.155,317.923C659.988,335.282 644.297,358.103 626.356,366.587L622.81,368.264L621.064,364.752C607.292,337.05 619.22,361.246 606.615,335.567L604.756,331.779L608.638,330.124ZM633.671,210C646.537,210 657,220.52 657,233.5C657,246.48 646.537,257 633.671,257C620.806,257 610.343,246.48 610.343,233.5C610.343,220.52 620.806,210 633.671,210Z" style="fill-opacity:0.4;"/>
                    </g>
                </g>
                <g transform="matrix(10,0,0,10,-3761.81,-1987)">
                    <clipPath id="_clip10">
                        <path d="M616.362,325.658L567.245,283.532L565.206,320.598L525.746,318.823L541.34,214.471L592.614,264.736L596.182,227.611L620.465,227.611C620.694,228.989 621.043,230.326 621.499,231.611L599.816,231.611L595.794,273.456L544.138,222.815L530.358,315.027L561.43,316.424L563.696,275.218L617.001,320.937L614.556,321.979L616.362,325.658ZM634.106,245.226L633.26,250.822L629.161,251.177L630.375,243.145C631.546,243.948 632.795,244.646 634.106,245.226ZM618.737,320.194L628.269,257.086C628.578,261.052 629.118,267.719 629.603,275.034L623.176,317.592C621.858,318.596 620.383,319.467 618.737,320.194Z"/>
                    </clipPath>
                    <g clip-path="url(#_clip10)">
                        <path d="M608.638,330.124C614.285,327.718 617.966,323.655 620.172,318.349C620.859,316.698 620.875,312.405 620.812,307.002C620.643,292.705 618.803,271.477 618.327,265.03L618.037,261.091L659.078,257.538L660.156,317.868L660.155,317.923C659.988,335.282 644.297,358.103 626.356,366.587L622.81,368.264L621.064,364.752C607.292,337.05 619.22,361.246 606.615,335.567L604.756,331.779L608.638,330.124ZM633.671,210C646.537,210 657,220.52 657,233.5C657,246.48 646.537,257 633.671,257C620.806,257 610.343,246.48 610.343,233.5C610.343,220.52 620.806,210 633.671,210Z" style="fill:rgb(246,159,39);fill-opacity:0.75;"/>
                    </g>
                </g>
            </g>
        </g>
    </g>
</svg>
